<?xml version="1.0" encoding="UTF-8"?>
<!-- Generator: visioncortex VTracer 0.6.12 -->
<svg version="1.1" xmlns="http://www.w3.org/2000/svg" width="1024" height="1024">
<path d="M0 0 C1.11002 -0.0025 2.22005 -0.00501 3.3637 -0.00759 C3.98233 -0.00642 3.98233 -0.00642 7.11294 -0.00049 C7.76592 -0.00122 7.76592 -0.00122 11.07041 -0.0049 C14.72846 -0.00882 18.38648 -0.00644 22.04453 -0.00312 C26.01166 -0.0006 29.97878 -0.00384 33.94591 -0.00636 C40.90974 -0.00999 47.87356 -0.00986 54.83739 -0.00731 C65.19253 -0.00355 75.54765 -0.00546 85.90278 -0.00852 C104.39258 -0.0138 122.88237 -0.01333 141.37217 -0.01044 C157.55248 -0.00793 173.73278 -0.00727 189.91308 -0.00847 C190.98452 -0.00854 192.05595 -0.00862 193.15985 -0.0087 C197.50866 -0.00901 201.85746 -0.00933 206.20627 -0.00966 C247.03835 -0.01272 287.87042 -0.00994 328.70249 -0.00456 C365.01457 0.00019 401.32664 -0.00024 437.63872 -0.00502 C478.394 -0.01037 519.14928 -0.0125 559.90456 -0.00941 C564.24565 -0.00909 568.58674 -0.00878 572.92782 -0.00847 C573.99678 -0.00839 575.06575 -0.00831 576.1671 -0.00823 C592.34101 -0.00709 608.51493 -0.00842 624.68884 -0.01095 C643.07113 -0.0138 661.45342 -0.01311 679.83571 -0.00767 C690.13571 -0.00472 700.43569 -0.00455 710.73568 -0.00831 C717.60261 -0.01054 724.46953 -0.00918 731.33646 -0.00481 C735.2577 -0.00241 739.17893 -0.00165 743.10017 -0.00521 C747.30945 -0.009 751.51869 -0.00518 755.72797 -0.00049 C756.96522 -0.00283 758.20246 -0.00517 759.4772 -0.00759 C760.03221 -0.00633 760.03221 -0.00633 762.84091 0 C763.32301 0.00003 763.32301 0.00003 765.76274 0.00021 C767.92045 0.12535 767.92045 0.12535 768.92045 1.12535 C769.0179 2.70531 769.04493 4.28966 769.04465 5.87262 C769.0469 6.90831 769.04915 7.944 769.05146 9.01108 C769.05015 9.58816 769.05015 9.58816 769.0435 12.50852 C769.04466 13.72744 769.04581 14.94636 769.047 16.20221 C769.0492 19.61509 769.04688 23.02791 769.04272 26.44078 C769.03931 30.13399 769.04166 33.82721 769.0433 37.52043 C769.04539 44.00993 769.04372 50.49942 769.03967 56.98892 C769.03359 66.76406 769.0333 76.5392 769.03413 86.31435 C769.03538 102.69299 769.03207 119.07164 769.02603 135.45029 C769.01787 157.59649 769.01593 179.74269 769.01506 201.8889 C769.0098 255.15522 768.99584 308.42153 768.98295 361.68785 C768.96233 480.63222 768.9417 599.5766 768.92045 722.12535 C513.17045 722.12535 257.42045 722.12535 -6.07955 722.12535 C-6.10017 603.18097 -6.1208 484.2366 -6.14205 361.68785 C-6.15115 324.05568 -6.16025 286.42352 -6.16963 247.65098 C-6.17415 201.8889 -6.17415 201.8889 -6.17499 180.50265 C-6.17599 164.49354 -6.18031 148.48443 -6.18622 132.47532 C-6.19216 116.17139 -6.19439 99.86745 -6.19299 83.56352 C-6.19227 73.85511 -6.19429 64.14672 -6.20035 54.43832 C-6.20408 48.0417 -6.20423 41.64509 -6.20138 35.24847 C-6.19986 31.59643 -6.19998 27.94441 -6.20443 24.29237 C-6.20918 20.36441 -6.20631 16.43648 -6.20259 12.50852 C-6.20522 11.35437 -6.20785 10.20021 -6.21055 9.01108 C-6.20831 7.97539 -6.20606 6.9397 -6.20374 5.87262 C-6.2039 4.97308 -6.20406 4.07354 -6.20422 3.14674 C-5.95576 -0.88167 -3.4606 0.00024 0 0 Z M4.92045 11.12535 C4.92045 242.45535 4.92045 473.78535 4.92045 712.12535 C253.41045 712.12535 501.90045 712.12535 757.92045 712.12535 C757.92045 480.79535 757.92045 249.46535 757.92045 11.12535 C509.43045 11.12535 260.94045 11.12535 4.92045 11.12535 Z " fill="#D49E1E" transform="translate(130.0795464515686,93.8746508359909)"/>
<path d="M0 0 C0.93436 -0.0013 1.86871 -0.0026 2.83138 -0.00395 C5.9403 -0.00454 9.04868 0.01641 12.15752 0.03746 C14.3955 0.04162 16.63349 0.04451 18.87148 0.04622 C24.93571 0.05499 30.99971 0.08307 37.06386 0.11574 C42.13324 0.14132 47.20262 0.15754 52.27203 0.1738 C64.91952 0.21457 77.56684 0.27394 90.21421 0.34194 C101.17597 0.40032 112.13767 0.43592 123.09956 0.4605 C134.37751 0.48598 145.65531 0.52653 156.93316 0.58232 C163.25585 0.61347 169.57843 0.63899 175.90119 0.6499 C181.8497 0.66088 187.79781 0.69116 193.74615 0.736 C195.92288 0.74926 198.09966 0.75587 200.27642 0.75514 C215.51206 0.75566 227.78713 0.86582 239.24614 12.12315 C248.2325 21.84275 248.76437 32.08165 248.70317 44.75206 C248.7052 46.23982 248.70811 47.72758 248.71187 49.21533 C248.71627 52.32101 248.70993 55.42644 248.69585 58.53209 C248.67877 62.48708 248.6886 66.44145 248.70656 70.39641 C248.71747 73.46533 248.71392 76.5341 248.70618 79.60301 C248.7042 81.06007 248.70657 82.51714 248.71362 83.97418 C248.76001 96.25591 247.49659 106.71875 239.30473 116.34972 C231.89252 123.24971 223.69219 126.39551 213.59648 126.55504 C212.4757 126.57498 211.35491 126.59493 210.20016 126.61548 C209.00104 126.63219 207.80191 126.6489 206.56645 126.66612 C205.33055 126.6869 204.09464 126.70768 202.82129 126.7291 C199.54821 126.78332 196.27511 126.83359 193.00194 126.88194 C189.65685 126.93233 186.31186 126.988 182.96684 127.04308 C176.41288 127.15008 169.85884 127.25188 163.30473 127.34972 C163.29015 128.39837 163.27557 129.44702 163.26054 130.52745 C163.20221 134.44901 163.12498 138.37001 163.04228 142.29112 C163.0092 143.98244 162.98112 145.67386 162.9583 147.36534 C162.92444 149.80851 162.87212 152.25071 162.81645 154.69347 C162.81006 155.43963 162.80367 156.1858 162.79709 156.95457 C162.65498 162.12466 161.76833 166.75007 159.30473 171.34972 C158.76721 171.84572 158.22969 172.34173 157.67587 172.85277 C157.2234 173.34676 156.77092 173.84075 156.30473 174.34972 C156.62574 177.19244 157.094 179.66308 157.80473 182.41222 C158.00123 183.19991 158.19774 183.98761 158.40019 184.79918 C158.81886 186.4651 159.24409 188.12939 159.67534 189.7921 C160.29978 192.3296 160.81366 194.87009 161.30864 197.43565 C161.65987 199.0532 162.01268 200.6704 162.36723 202.28722 C162.49743 203.04978 162.62762 203.81234 162.76176 204.59801 C163.32252 206.9406 163.89263 208.39479 165.30473 210.34972 C173.36804 213.95041 182.98943 214.53074 191.67583 215.79503 C193.13035 216.01191 194.58478 216.22945 196.03912 216.44759 C199.83258 217.0151 203.62711 217.57508 207.42198 218.13304 C213.51898 219.03087 219.61423 219.9406 225.70954 220.84983 C227.82968 221.16503 229.95027 221.47714 232.07095 221.78871 C232.71373 221.88394 232.71373 221.88394 235.9666 222.36583 C237.09702 222.53221 238.22744 222.69859 239.39212 222.87001 C241.74563 223.25763 244.00641 223.72134 246.30473 224.34972 C246.30029 223.80292 246.29585 223.25613 246.29128 222.69276 C246.24712 217.01545 246.2169 211.33819 246.19487 205.66075 C246.1848 203.54029 246.17114 201.41984 246.15385 199.29942 C246.12967 196.25626 246.11826 193.21327 246.10942 190.17003 C246.0991 189.2179 246.08878 188.26578 246.07814 187.28481 C246.07799 186.40404 246.07784 185.52328 246.07768 184.61583 C246.07324 183.83862 246.0688 183.0614 246.06422 182.26064 C246.30473 180.34972 246.30473 180.34972 248.30473 178.34972 C254.88166 178.92664 254.88166 178.92664 256.30473 180.34972 C256.41074 183.44406 256.45151 186.5162 256.45 189.61119 C256.45168 190.09734 256.45168 190.09734 256.46017 192.55753 C256.46972 195.78905 256.47163 199.02052 256.4727 202.25206 C256.47591 204.48786 256.47928 206.72367 256.48279 208.95947 C256.48879 213.65295 256.49063 218.34642 256.49004 223.0399 C256.48993 229.06736 256.50359 235.0947 256.52081 241.12212 C256.5319 245.74165 256.53396 250.36116 256.53343 254.9807 C256.53461 257.20355 256.53906 259.42639 256.54676 261.64923 C256.55651 264.75252 256.5537 267.85555 256.54765 270.95885 C256.55327 271.88516 256.55889 272.81147 256.56468 273.76585 C256.56258 274.18721 256.56258 274.18721 256.55197 276.31955 C256.55252 277.05384 256.55306 277.78813 256.55362 278.54468 C256.30473 280.34972 256.30473 280.34972 254.30473 282.34972 C251.51248 282.7077 249.96513 282.83806 247.66289 281.1356 C245.87513 278.78481 245.95847 277.39412 246.01176 274.463 C246.02143 273.5252 246.0311 272.58741 246.04106 271.6212 C246.0662 270.64474 246.09133 269.66827 246.11723 268.66222 C246.13077 267.67415 246.1443 266.68608 246.15825 265.66808 C246.19361 263.22805 246.24553 260.78925 246.30473 258.34972 C245.69548 258.30495 245.08623 258.26018 244.45851 258.21405 C236.03707 257.52774 227.71866 256.28581 219.37505 254.98643 C217.8525 254.7508 216.32994 254.51519 214.80739 254.2796 C211.63177 253.78715 208.45665 253.29159 205.28178 252.7943 C201.25025 252.16349 197.21696 251.54483 193.18311 250.9291 C190.04188 250.44743 186.90207 249.957 183.76255 249.46429 C182.27777 249.23273 180.7925 249.00427 179.30672 248.77923 C164.05838 246.46311 148.80134 243.78468 138.42973 231.28722 C131.86496 220.39933 129.81052 206.46795 127.39799 194.14757 C126.99801 192.12523 126.57485 190.10882 126.14848 188.0919 C125.91323 186.91483 125.67798 185.73775 125.43559 184.52501 C124.09151 180.75101 122.2866 178.97123 119.30473 176.34972 C118.22444 175.22065 117.15903 174.07691 116.11723 172.91222 C115.62868 172.37726 115.14012 171.84229 114.63676 171.29112 C111.24188 166.34315 110.9928 160.96466 110.92583 155.14268 C110.90883 154.37668 110.89184 153.61068 110.87433 152.82147 C110.82152 150.39347 110.78101 147.96548 110.74223 145.53722 C110.69831 143.09118 110.6517 140.64527 110.59943 138.1994 C110.56745 136.68151 110.54056 135.1635 110.5192 133.64542 C110.41655 128.46153 110.41655 128.46153 109.30473 127.34972 C106.99622 127.24127 104.68437 127.20339 102.37334 127.192 C101.64798 127.18692 100.92263 127.18184 100.17529 127.17661 C98.59346 127.16588 97.01162 127.15727 95.42977 127.15049 C92.91909 127.13871 90.40859 127.11926 87.89798 127.09737 C80.75701 127.03574 73.61606 126.9819 66.4749 126.94835 C62.1099 126.92729 57.74522 126.89188 53.3804 126.84759 C51.72242 126.83351 50.06439 126.82473 48.40636 126.82154 C33.52098 126.7899 22.71148 124.96452 11.40239 114.60753 C3.60298 106.36598 -5.11535 92.47963 -5.84761 80.95128 C-6.03865 78.2208 -6.27466 76.7174 -7.69527 74.34972 C-11.31002 71.94423 -14.96419 70.08192 -18.89839 68.27159 C-27.49958 64.18908 -33.05683 56.96706 -36.57027 48.22472 C-39.23222 39.10711 -38.83111 28.67294 -35.16011 19.92003 C-29.87039 10.63833 -22.27016 4.26257 -12.19004 0.98612 C-8.11754 -0.05276 -4.18256 -0.04834 0 0 Z M-22.25777 19.37706 C-27.30149 26.29847 -28.7032 32.85785 -27.69527 41.34972 C-26.20788 48.81319 -21.55719 54.73928 -15.30855 58.963 C-9.38418 62.34972 -9.38418 62.34972 -6.69527 62.34972 C-6.73652 61.17409 -6.77777 59.99847 -6.82027 58.78722 C-6.76744 41.93668 -2.90111 26.46879 6.30473 12.34972 C-2.58479 6.42336 -15.7724 12.03425 -22.25777 19.37706 Z M32.30473 11.34972 C34.80085 13.92149 37.41176 15.87528 40.36723 17.91222 C49.54716 24.56767 56.36389 32.18191 62.76152 41.43565 C68.83587 50.12256 76.26228 55.44134 86.64384 57.93907 C93.61727 59.01525 100.84519 58.74611 107.89067 58.80602 C121.56576 58.94441 133.01916 60.29754 143.24614 70.23643 C145.56179 72.78215 147.7332 75.19088 149.26543 78.29761 C152.18002 83.91491 152.18002 83.91491 155.14879 85.06261 C157.41087 85.29503 159.54885 85.27591 161.82036 85.16612 C162.65696 85.15767 163.49357 85.14922 164.35553 85.14052 C167.09088 85.10321 169.82089 85.00872 172.55473 84.91222 C174.44228 84.87293 176.3299 84.8369 178.21758 84.80406 C182.05344 84.73017 185.8875 84.6319 189.72221 84.5128 C194.10598 84.37804 198.48815 84.29021 202.87355 84.23273 C205.91177 84.19246 208.94958 84.13773 211.98747 84.0782 C213.39831 84.05105 214.8092 84.02686 216.22014 84.00575 C218.17182 83.97257 220.1231 83.91752 222.07426 83.86143 C222.61877 83.84834 222.61877 83.84834 225.37431 83.78209 C229.93915 83.10856 232.50806 81.2349 235.55473 77.84972 C238.70161 73.35417 238.4801 69.12802 238.50786 63.8419 C238.51356 63.00185 238.51926 62.16179 238.52513 61.29628 C238.53458 59.51593 238.54111 57.73556 238.54497 55.95518 C238.55462 53.25565 238.58563 50.55689 238.61723 47.85753 C238.62377 46.12316 238.62902 44.38878 238.63286 42.6544 C238.63903 42.2558 238.63903 42.2558 238.67027 40.2386 C238.64028 32.53899 236.7039 25.11038 231.95317 18.92003 C224.93643 12.23584 215.93156 11.19042 206.67378 11.22946 C205.92545 11.22861 205.17712 11.22775 204.40611 11.22687 C201.90956 11.22523 199.41309 11.23072 196.91655 11.23619 C195.12258 11.23647 193.32862 11.23631 191.53465 11.23575 C186.67152 11.23546 181.80841 11.24134 176.94527 11.24832 C171.86037 11.25458 166.77547 11.25516 161.69057 11.25635 C152.0647 11.25945 142.43885 11.26766 132.81299 11.2777 C121.85296 11.28888 110.89293 11.29437 99.9329 11.29939 C77.39017 11.30984 54.84745 11.32743 32.30473 11.34972 Z M17.30473 15.34972 C6.23541 26.19573 2.38371 41.11028 1.95146 56.29308 C1.77203 76.37283 6.17507 93.94378 20.36723 108.78722 C26.71337 114.75934 31.52621 115.87256 40.18755 115.62706 C47.88851 114.94189 53.19534 110.86142 58.30473 105.34972 C65.85422 95.46787 69.77974 84.62056 71.30473 72.34972 C71.43622 71.45768 71.5677 70.56565 71.70317 69.64659 C71.93406 66.98736 71.97428 64.93618 71.30473 62.34972 C69.56559 60.45739 67.75842 59.25803 65.58598 57.88878 C59.62226 53.86531 55.41559 47.58417 51.30473 41.78722 C42.3082 29.293 30.70491 22.55188 17.30473 15.34972 Z M81.30473 67.34972 C80.74786 70.56722 80.19098 73.78472 79.61723 77.09972 C76.93451 91.61989 71.71868 103.87078 62.30473 115.34972 C65.32655 115.45839 68.3444 115.53734 71.36723 115.59972 C72.21479 115.63323 73.06235 115.66675 73.93559 115.70128 C80.97338 115.80997 84.89891 114.27089 90.30864 109.63097 C101.26562 97.1087 103.64832 84.49824 103.30473 68.34972 C99.67473 68.18472 99.67473 68.18472 81.30473 67.34972 Z M113.30473 69.34972 C113.26155 69.99038 113.26155 69.99038 113.04301 73.23253 C111.845 88.77513 109.00388 100.73039 99.30473 113.34972 C98.97473 114.00972 98.64473 114.66972 98.30473 115.34972 C114.20373 115.44328 130.10266 115.51376 146.00186 115.55696 C153.38465 115.57756 160.76727 115.60563 168.14995 115.65147 C174.58696 115.69142 181.02384 115.71717 187.46097 115.72607 C190.8674 115.73127 194.27348 115.74344 197.67979 115.77264 C201.48858 115.80171 205.29663 115.80567 209.10551 115.80382 C210.22689 115.8182 211.34827 115.83258 212.50363 115.8474 C220.08698 115.80753 225.38356 114.6653 231.32817 109.63878 C236.49272 103.28012 237.62716 97.37367 238.30473 89.34972 C237.29411 89.82409 236.28348 90.29847 235.24223 90.78722 C229.46772 93.4977 223.08271 93.47853 216.8123 93.52672 C216.09915 93.53329 215.386 93.53986 214.65125 93.54663 C212.31569 93.56618 209.98019 93.57798 207.64458 93.588 C207.24333 93.59004 207.24333 93.59004 205.21276 93.60035 C200.97185 93.62112 196.73098 93.63546 192.49004 93.64488 C188.11981 93.65598 183.75009 93.69044 179.38004 93.73005 C176.00765 93.75621 172.63538 93.76457 169.2629 93.76816 C167.65178 93.77302 166.04067 93.78462 164.42966 93.8032 C162.17528 93.8276 159.92223 93.82663 157.66777 93.81969 C156.38761 93.82555 155.10744 93.83142 153.78848 93.83746 C149.66555 93.26023 147.52213 91.94528 144.30473 89.34972 C142.65239 86.76378 142.65239 86.76378 141.36723 83.97472 C138.01691 77.43112 134.3491 74.10608 128.05473 70.47472 C123.07086 68.97956 118.46697 69.09767 113.30473 69.34972 Z M121.30473 126.34972 C121.30473 129.31972 121.30473 132.28972 121.30473 135.34972 C131.53473 135.34972 141.76473 135.34972 152.30473 135.34972 C152.30473 132.37972 152.30473 129.40972 152.30473 126.34972 C142.07473 126.34972 131.84473 126.34972 121.30473 126.34972 Z M121.30473 147.34972 C120.44285 153.40617 120.41525 159.36548 122.92973 164.97472 C127.31736 169.36234 130.39273 171.59047 136.67973 171.91222 C142.17026 171.70997 146.30048 170.16329 150.30473 166.34972 C152.83633 162.77085 152.60325 158.94595 152.55473 154.72472 C152.56247 154.04409 152.5702 153.36347 152.57817 152.66222 C152.55817 147.60316 152.55817 147.60316 150.30473 145.34972 C147.73857 145.09093 147.73857 145.09093 144.52739 145.08409 C143.37432 145.08151 142.22126 145.07893 141.03325 145.07628 C140.42836 145.08015 140.42836 145.08015 137.36723 145.09972 C136.16132 145.09198 134.9554 145.08425 133.71294 145.07628 C133.13576 145.07757 133.13576 145.07757 130.21489 145.08409 C129.15407 145.08635 128.09325 145.0886 127.00029 145.09093 C124.30473 145.34972 124.30473 145.34972 121.30473 147.34972 Z M135.30473 182.34972 C136.21684 186.72642 137.141 191.10036 138.07573 195.47227 C138.39111 196.95532 138.70337 198.43903 139.01225 199.92345 C143.855 223.16552 143.855 223.16552 150.49223 228.78722 C151.18704 229.40468 151.88184 230.02214 152.5977 230.65831 C160.14186 235.37205 169.15638 236.35529 177.78911 237.72472 C179.08053 237.93532 180.37195 238.14592 181.7025 238.3629 C184.43167 238.80768 187.16155 239.24767 189.89214 239.6837 C193.32519 240.23193 196.75688 240.78815 200.18813 241.34753 C215.53701 243.84899 230.89785 246.23175 246.30473 248.34972 C246.30473 244.05972 246.30473 239.76972 246.30473 235.34972 C238.80954 233.54521 231.25156 232.3445 223.63397 231.1928 C221.34954 230.8468 219.0659 230.49603 216.78241 230.14389 C210.29639 229.14406 203.80964 228.14914 197.32109 227.16588 C193.33491 226.56147 189.35011 225.94862 185.36604 225.33047 C183.85759 225.09809 182.34864 224.86885 180.8392 224.64293 C161.90548 221.80677 161.90548 221.80677 156.93633 217.11217 C154.99823 213.83077 154.10402 210.85312 153.19926 207.1505 C153.1145 206.81237 153.1145 206.81237 152.68552 205.10123 C152.15059 202.95768 151.63336 200.81036 151.11723 198.66222 C150.58674 196.50442 150.05266 194.34755 149.51682 192.19107 C149.03473 190.24328 148.56171 188.29325 148.08916 186.34312 C147.30473 183.34972 147.30473 183.34972 146.30473 181.34972 C142.51056 181.23812 139.03755 181.69311 135.30473 182.34972 Z " fill="#D49E1E" transform="translate(555.6952667236328,498.65028381347656)"/>
<path d="M0 0 C3.69414 2.48286 6.22975 5.04118 8.63281 8.76953 C9.03113 9.34059 9.42945 9.91164 9.83984 10.5 C13.71386 16.92019 13.63281 24.43894 13.63281 31.76953 C14.20722 31.77089 14.78162 31.77224 15.37343 31.77364 C49.39339 31.85424 83.4133 31.94517 117.43319 32.04958 C121.51511 32.0621 125.59703 32.07453 129.67896 32.08691 C130.49162 32.08938 131.30428 32.09185 132.14156 32.09439 C145.31184 32.13414 158.48212 32.16688 171.65243 32.19703 C185.1595 32.22811 198.66655 32.2667 212.17358 32.31232 C220.51273 32.34025 228.85184 32.36226 237.19102 32.37679 C242.90421 32.38731 248.61734 32.40511 254.33049 32.4287 C257.63004 32.44211 260.9295 32.45116 264.22908 32.45374 C267.80145 32.45705 271.37356 32.47247 274.94588 32.49106 C275.47068 32.49009 275.47068 32.49009 278.12648 32.4852 C278.60321 32.48893 278.60321 32.48893 281.01574 32.50782 C281.84088 32.5101 282.66601 32.51237 283.51615 32.51472 C285.63281 32.76953 285.63281 32.76953 288.63281 34.76953 C289.13959 36.58575 289.13959 36.58575 289.31153 38.77614 C289.34368 39.18061 289.34368 39.18061 289.50638 41.22748 C289.71269 45.37562 289.77736 49.51081 289.77325 53.66376 C289.77474 54.14157 289.77474 54.14157 289.78226 56.5596 C289.79088 59.73994 289.79245 62.92024 289.79395 66.10059 C289.79858 68.38934 289.8036 70.67809 289.80899 72.96684 C289.82207 79.16686 289.82855 85.36687 289.833 91.5669 C289.83594 95.44031 289.84004 99.31373 289.84451 103.18714 C289.8566 113.92074 289.86699 124.65433 289.87038 135.38794 C289.8706 136.07332 289.87082 136.75869 289.87105 137.46484 C289.87126 138.1518 289.87148 138.83875 289.87171 139.54652 C289.87215 140.9384 289.8726 142.33028 289.87305 143.72217 C289.87327 144.41258 289.87349 145.10299 289.87372 145.81433 C289.87767 157.02013 289.89515 168.22587 289.91841 179.43165 C289.94211 190.94792 289.95432 202.46415 289.95575 213.98044 C289.9568 220.44211 289.96273 226.90368 289.98057 233.36532 C289.997 239.43596 289.99923 245.50644 289.99043 251.5771 C289.98966 253.80679 289.99403 256.03649 290.00389 258.26616 C290.01653 261.30538 290.01077 264.34402 290.00031 267.38324 C290.00433 267.82618 290.00433 267.82618 290.02472 270.06775 C289.9875 274.67717 289.92453 278.21595 286.63281 281.76953 C284.22897 282.39594 284.22897 282.39594 281.3257 282.39772 C280.7754 282.40405 280.7754 282.40405 277.99055 282.43607 C276.78268 282.42437 275.5748 282.41268 274.33032 282.40063 C273.05859 282.40779 271.78686 282.41495 270.47659 282.42232 C266.98668 282.44086 263.49753 282.42788 260.00765 282.40823 C256.35665 282.39186 252.70569 282.40065 249.05467 282.40575 C242.92198 282.41027 236.7896 282.39438 230.65698 282.36646 C223.56716 282.33442 216.47788 282.33441 209.38802 282.35167 C202.56906 282.36754 195.7503 282.3608 188.93135 282.34373 C186.02908 282.33686 183.12697 282.3379 180.2247 282.34528 C176.17106 282.35436 172.11826 282.3304 168.0647 282.30298 C166.85884 282.3095 165.65299 282.31603 164.4106 282.32275 C163.30718 282.31003 162.20376 282.2973 161.06691 282.28419 C160.58768 282.28279 160.58768 282.28279 158.1625 282.27569 C154.93395 281.6297 153.72066 280.24401 151.63281 277.76953 C152.23465 275.74908 152.90587 273.74842 153.63281 271.76953 C156.10011 270.53588 157.7445 270.63115 160.50491 270.61131 C161.53205 270.60154 162.55918 270.59176 163.61743 270.58169 C164.75318 270.57592 165.88892 270.57015 167.05908 270.56421 C168.26861 270.55418 169.47814 270.54414 170.72432 270.53381 C174.65473 270.50233 178.58516 270.47761 182.51562 270.45312 C184.93612 270.43473 187.35661 270.41589 189.7771 270.39661 C198.77063 270.32805 207.76423 270.26807 216.75781 270.20703 C226.80219 270.13484 226.80219 270.13484 277.63281 269.76953 C277.63281 195.51953 277.63281 121.26953 277.63281 44.76953 C190.51281 44.76953 103.39281 44.76953 13.63281 44.76953 C13.69531 116.33203 13.69531 116.33203 13.7229 138.54517 C13.74499 166.76556 13.76169 194.98894 13.36508 223.20714 C13.33301 225.57268 13.30557 227.9383 13.2831 230.30396 C13.25078 233.50636 13.19959 236.70787 13.14233 239.90991 C13.13614 240.8327 13.12994 241.75548 13.12356 242.70623 C12.9733 249.2316 11.68052 253.45239 7.25781 258.45703 C1.38585 263.62995 -3.55468 264.9558 -11.36719 264.76953 C-17.55067 263.50781 -22.47273 260.4759 -26.11719 255.26953 C-28.39112 250.72167 -28.73885 246.87987 -28.36719 241.76953 C-27.24219 239.76953 -27.24219 239.76953 -25.36719 238.76953 C-22.17969 239.08203 -22.17969 239.08203 -19.36719 239.76953 C-19.19703 240.38441 -19.02688 240.9993 -18.85156 241.63281 C-16.91096 248.10492 -16.91096 248.10492 -14.67969 250.83203 C-10.49117 252.53008 -6.27211 252.37108 -1.99219 251.01953 C0.15964 249.36428 0.80746 248.38313 1.63281 245.76953 C2.26659 239.32611 1.36476 236.05645 -2.36719 230.76953 C-6.81246 226.72837 -11.08619 226.47014 -16.87109 226.5625 C-22.2201 227.00616 -25.22565 229.40721 -28.67969 233.26953 C-33.30314 238.80311 -32.96542 244.84352 -32.36719 251.76953 C-30.76057 258.4347 -28.32024 263.06292 -22.36719 266.76953 C-15.21693 270.04324 -8.31853 270.19621 -0.5625 270.17578 C0.03797 270.1812 0.03797 270.1812 3.07669 270.20862 C8.1852 270.25433 13.29366 270.26603 18.40234 270.28076 C22.14342 270.2964 25.88406 270.32936 29.625 270.36328 C30.78434 270.36026 31.94368 270.35724 33.13815 270.35413 C34.21002 270.36424 35.28188 270.37435 36.38623 270.38477 C36.85786 270.38579 36.85786 270.38579 39.2446 270.39099 C42.06623 270.83823 42.9614 271.48762 44.63281 273.76953 C45.05444 276.5804 45.14101 278.06728 43.45251 280.40053 C40.94976 282.28341 39.25825 282.15659 36.14258 282.17358 C35.01711 282.18627 33.89163 282.19895 32.73206 282.21202 C31.51337 282.20909 30.29468 282.20615 29.03906 282.20312 C27.78203 282.20837 26.52499 282.21361 25.22986 282.21901 C22.56308 282.22544 19.89715 282.22551 17.23047 282.21558 C13.84245 282.20417 10.45549 282.22416 7.0676 282.25349 C3.80809 282.27648 0.54864 282.26938 -2.71094 282.26562 C-3.91343 282.27686 -5.11593 282.28809 -6.35486 282.29967 C-16.94851 282.2133 -26.02463 279.83205 -34.28906 272.96484 C-42.46405 264.32886 -44.51671 255.70827 -44.51436 244.31404 C-44.51804 243.35719 -44.52171 242.40034 -44.5255 241.41449 C-44.53652 238.20577 -44.54038 234.99707 -44.54419 231.78833 C-44.55046 229.48858 -44.5571 227.18882 -44.5641 224.88907 C-44.58513 217.33491 -44.5955 209.78075 -44.60547 202.22656 C-44.60952 199.62496 -44.61363 197.02336 -44.61782 194.42176 C-44.63468 183.59998 -44.64932 172.7782 -44.65657 161.95641 C-44.65848 159.15055 -44.6604 156.34468 -44.66235 153.53882 C-44.66284 152.84147 -44.66332 152.14413 -44.66382 151.42566 C-44.67212 140.13242 -44.69745 128.8393 -44.72993 117.54611 C-44.76304 105.94067 -44.78069 94.33529 -44.78421 82.72981 C-44.78656 76.21815 -44.79552 69.70666 -44.82067 63.19505 C-44.84396 57.06778 -44.84818 50.94078 -44.83791 44.81348 C-44.83742 42.56815 -44.84373 40.32281 -44.85747 38.07752 C-44.87521 35.00466 -44.86807 31.9328 -44.85493 28.85994 C-44.86042 28.41902 -44.86042 28.41902 -44.88817 26.18772 C-44.80718 18.30187 -42.62921 10.8123 -37.36719 4.76953 C-36.70719 4.76953 -36.04719 4.76953 -35.36719 4.76953 C-35.36719 4.10953 -35.36719 3.44953 -35.36719 2.76953 C-24.4213 -5.89828 -12.13386 -6.76392 0 0 Z M-30.36719 13.76953 C-33.13714 19.0994 -33.79657 23.25352 -33.72795 29.20409 C-33.73051 30.02678 -33.73308 30.84947 -33.73572 31.69709 C-33.74064 34.43946 -33.72419 37.18127 -33.70776 39.92358 C-33.70692 41.89503 -33.70739 43.86649 -33.70909 45.83794 C-33.70995 51.18041 -33.69233 56.52268 -33.67137 61.86511 C-33.6526 67.45181 -33.65085 73.03853 -33.64729 78.62526 C-33.63797 89.20028 -33.61336 99.77521 -33.58324 110.35018 C-33.5497 122.39122 -33.53321 134.43225 -33.51816 146.47332 C-33.48681 171.23878 -33.43405 196.00415 -33.36719 220.76953 C-32.57055 220.4202 -31.77391 220.07086 -30.95312 219.71094 C-29.89352 219.2559 -28.83391 218.80086 -27.74219 218.33203 C-26.69805 217.87957 -25.65391 217.42711 -24.57812 216.96094 C-17.41658 214.30367 -11.63009 214.83202 -4.36719 216.76953 C-1.30469 218.45703 -1.30469 218.45703 0.63281 219.76953 C1.29281 219.43953 1.95281 219.10953 2.63281 218.76953 C2.59566 192.79631 2.53582 166.82322 2.44891 140.85012 C2.40909 128.79054 2.37671 116.73102 2.36182 104.67139 C2.34882 94.16107 2.32189 83.65089 2.2782 73.14065 C2.25555 67.57476 2.2399 62.00904 2.24093 56.4431 C2.24167 51.20472 2.22381 45.96674 2.19164 40.72847 C2.18312 38.80561 2.18141 36.88271 2.18701 34.95985 C2.19364 32.33405 2.17576 29.7095 2.15179 27.08383 C2.15955 26.32312 2.16732 25.56241 2.17531 24.77864 C2.06767 18.11529 -0.58361 14.6805 -4.99219 9.95703 C-13.09502 3.61836 -23.68641 7.08875 -30.36719 13.76953 Z " fill="#D49E1E" transform="translate(556.3671875,140.23046875)"/>
<path d="M0 0 C1.12291 -0.00336 2.24583 -0.00672 3.40277 -0.01018 C7.10552 -0.01966 10.80823 -0.02163 14.51099 -0.02271 C17.0954 -0.02592 19.67982 -0.02928 22.26424 -0.03279 C27.68023 -0.03877 33.09621 -0.04067 38.51221 -0.04004 C44.74522 -0.03944 50.97815 -0.04997 57.21115 -0.06578 C63.23553 -0.08051 69.25986 -0.08402 75.28427 -0.08343 C77.83378 -0.0846 80.38329 -0.089 82.93279 -0.09676 C86.50995 -0.10663 90.0869 -0.10366 93.66406 -0.09766 C94.18401 -0.10047 94.18401 -0.10047 96.81526 -0.11469 C111.79312 -0.05128 125.25313 2.87072 136.59302 13.20776 C144.73867 22.03856 148.80539 32.75754 148.80269 44.63857 C148.80637 45.50402 148.81004 46.36947 148.81383 47.26115 C148.82486 50.16662 148.82871 53.07205 148.83252 55.97754 C148.83878 58.05878 148.84543 60.14002 148.85243 62.22125 C148.87347 69.0618 148.88384 75.90235 148.8938 82.74292 C148.89785 85.09902 148.90196 87.45512 148.90615 89.81122 C148.9252 100.88239 148.93943 111.95355 148.94776 123.02473 C148.95753 135.7967 148.98384 148.5685 149.02426 161.34041 C149.05445 171.21659 149.06923 181.09273 149.07254 190.96895 C149.07489 196.8653 149.08382 202.76146 149.109 208.65776 C149.13233 214.20885 149.1365 219.75962 149.12624 225.31075 C149.12575 227.3428 149.13204 229.37487 149.1458 231.40687 C149.2353 245.41496 148.11459 256.47671 139.65552 268.14526 C139.23786 268.73952 138.82021 269.33378 138.38989 269.94604 C130.88717 279.66941 119.67151 284.27675 107.81125 285.9309 C103.38959 286.37058 98.94988 286.29248 94.5105 286.29053 C93.4087 286.29389 92.3069 286.29724 91.17171 286.3007 C87.53869 286.31018 83.90573 286.31216 80.27271 286.31323 C77.73552 286.31645 75.19834 286.31981 72.66116 286.32332 C67.34352 286.3293 62.0259 286.3312 56.70825 286.33057 C50.59227 286.32997 44.47638 286.34049 38.36042 286.35631 C32.44604 286.37105 26.53168 286.37455 20.61728 286.37396 C18.11605 286.37513 15.61481 286.37952 13.11358 286.38729 C-26.53929 286.49887 -26.53929 286.49887 -41.28198 273.08276 C-54.14351 259.02146 -54.64538 242.63299 -54.61914 224.68921 C-54.62349 222.72032 -54.62868 220.75144 -54.63463 218.78256 C-54.64797 213.45592 -54.6486 208.12935 -54.64606 202.80269 C-54.64499 198.34482 -54.64989 193.88697 -54.65467 189.42911 C-54.66575 178.90479 -54.66621 168.38052 -54.66016 157.8562 C-54.65412 147.02602 -54.66642 136.19597 -54.68773 125.36582 C-54.70538 116.04402 -54.71134 106.72227 -54.70809 97.40046 C-54.70628 91.8434 -54.70885 86.28644 -54.7228 80.72941 C-54.73545 75.49918 -54.73338 70.26915 -54.72039 65.03893 C-54.71804 63.12908 -54.72071 61.21922 -54.72902 59.30939 C-54.80159 41.31034 -53.36493 25.96931 -40.57495 12.21948 C-29.13845 1.58414 -14.91837 -0.00644 0 0 Z M-34.7312 27.75464 C-38.88174 33.90508 -39.78722 39.80388 -39.73216 47.01915 C-39.73755 47.87718 -39.74293 48.73521 -39.74848 49.61924 C-39.76272 52.47564 -39.75567 55.33157 -39.74854 58.18799 C-39.75424 60.24351 -39.76121 62.29903 -39.76933 64.35454 C-39.78725 69.92478 -39.7861 75.49487 -39.78039 81.06514 C-39.7773 85.71972 -39.78339 90.37428 -39.78943 95.02886 C-39.80347 106.01129 -39.80192 116.99364 -39.79053 127.97607 C-39.77905 139.29713 -39.79312 150.61796 -39.81992 161.93898 C-39.84209 171.66831 -39.84872 181.39756 -39.84285 191.12691 C-39.83948 196.93369 -39.84188 202.74031 -39.8591 208.54707 C-39.87458 214.00795 -39.8706 219.46848 -39.85179 224.92934 C-39.84811 226.92997 -39.8512 228.93063 -39.86168 230.93124 C-39.87492 233.66936 -39.86332 236.40632 -39.84569 239.14439 C-39.85529 239.92982 -39.8649 240.71525 -39.87479 241.52447 C-39.76052 250.19345 -36.09337 257.13138 -30.28198 263.4187 C-25.12257 268.01641 -18.95874 270.26143 -12.10898 270.29243 C-11.02402 270.29959 -9.93906 270.30675 -8.82123 270.31412 C-7.63056 270.31681 -6.43989 270.3195 -5.21313 270.32227 C-3.95919 270.32884 -2.70524 270.33541 -1.4133 270.34218 C2.74766 270.36193 6.90859 270.37358 11.06958 270.38354 C12.50417 270.38759 13.93877 270.39171 15.37336 270.3959 C22.11645 270.41495 28.85952 270.42918 35.60262 270.43751 C43.37362 270.44727 51.14433 270.47356 58.91523 270.51401 C64.92897 270.54423 70.94263 270.55898 76.95645 270.56229 C80.54449 270.56463 84.13222 270.57351 87.72017 270.59875 C91.72956 270.6265 95.73832 270.62218 99.7478 270.61523 C100.92633 270.62804 102.10485 270.64085 103.31909 270.65405 C113.3831 270.59063 120.53732 267.93651 127.92896 261.07495 C134.03595 254.24949 134.80478 246.65112 134.80269 237.79745 C134.80637 236.95973 134.81004 236.12201 134.81383 235.2589 C134.82484 232.45327 134.82871 229.64769 134.83252 226.84204 C134.83879 224.82962 134.84543 222.8172 134.85243 220.80478 C134.87345 214.19693 134.88383 207.58908 134.8938 200.9812 C134.89785 198.70404 134.90196 196.42687 134.90615 194.14971 C134.9252 183.45016 134.93943 172.75062 134.94776 162.05106 C134.95753 149.71151 134.98385 137.37214 135.02426 125.03265 C135.05445 115.48766 135.06923 105.94271 135.07254 96.39767 C135.07489 90.70031 135.08381 85.00314 135.109 79.30583 C135.13233 73.94268 135.1365 68.57986 135.12624 63.21668 C135.12575 61.25396 135.13204 59.29123 135.1458 57.32857 C135.30728 32.92351 135.30728 32.92351 126.62817 23.71167 C119.56275 18.1013 111.49926 15.03533 102.52791 15.00482 C102.02264 15.00197 102.02264 15.00197 99.46568 14.98752 C98.91681 14.98696 98.91681 14.98696 96.13916 14.98413 C94.97431 14.97917 93.80946 14.9742 92.60931 14.96909 C88.75622 14.95448 84.90317 14.94766 81.05005 14.94214 C79.0463 14.93784 77.04254 14.93354 75.03879 14.92916 C69.45469 14.91736 63.87061 14.90982 58.2865 14.90637 C51.08609 14.90189 43.88587 14.88437 36.68552 14.85537 C31.10569 14.83368 25.52591 14.82366 19.94604 14.82233 C16.62017 14.82128 13.29453 14.81401 9.9687 14.79751 C6.25194 14.78038 2.53563 14.78234 -1.18115 14.78882 C-2.26878 14.7796 -3.35642 14.77039 -4.47701 14.76089 C-17.26334 14.83039 -26.06479 18.2714 -34.7312 27.75464 Z " fill="#D49E1E" transform="translate(278.344482421875,478.854736328125)"/>
<path d="M0 0 C17.3999 5.02488 33.35131 12.90867 47.53613 24.15186 C48.50809 24.90338 49.48004 25.6549 50.48145 26.4292 C79.23623 49.21677 96.82781 81.45201 102.13916 117.58862 C102.86229 124.07948 102.92981 130.56686 102.91113 137.08936 C102.91086 137.44888 102.91086 137.44888 102.90948 139.26831 C102.79199 173.23802 91.54341 204.1395 69.53613 230.15186 C68.85938 230.96396 68.18262 231.77607 67.48535 232.61279 C48.84625 254.21643 22.34754 269.93867 -5.46387 276.15186 C-6.17092 276.31267 -6.87797 276.47348 -7.60645 276.63916 C-44.81743 284.7032 -84.63483 277.48633 -116.69092 257.14746 C-123.81312 252.43799 -130.20391 246.93925 -136.46387 241.15186 C-137.28371 240.40291 -138.10355 239.65396 -138.94824 238.88232 C-164.16709 214.78133 -179.79708 179.98018 -180.70215 145.10889 C-180.73851 142.39344 -180.76605 139.67984 -180.77637 136.96436 C-180.77965 136.25853 -180.78293 135.55271 -180.78632 134.8255 C-180.80782 120.49473 -179.27642 106.72238 -174.46387 93.15186 C-175.51574 92.49186 -176.56762 91.83186 -177.65137 91.15186 C-182.63177 87.61607 -185.54803 82.89937 -187.46387 77.15186 C-187.98663 70.66549 -186.80532 66.74058 -183.71387 61.08936 C-183.53984 60.75517 -183.53984 60.75517 -182.65918 59.06396 C-180.36832 54.6986 -177.92866 50.42084 -175.46387 46.15186 C-157.75393 54.77847 -140.50045 64.26715 -123.46387 74.15186 C-124.98727 79.49222 -127.42358 83.96008 -130.21387 88.71436 C-130.63152 89.45621 -131.04918 90.19807 -131.47949 90.9624 C-134.81942 96.67999 -138.21522 100.70033 -144.40137 103.46436 C-152.56322 105.29661 -157.41622 103.12236 -164.46387 99.15186 C-164.53025 99.63074 -164.53025 99.63074 -164.86621 102.0542 C-165.2747 104.92944 -165.73456 107.79218 -166.21777 110.65576 C-172.0569 146.39292 -166.7354 181.16071 -146.20996 211.58154 C-130.49066 233.23425 -109.68258 249.91163 -84.46387 259.15186 C-83.85607 259.3768 -83.85607 259.3768 -80.78027 260.51514 C-47.84768 272.05476 -11.8094 268.72884 19.53223 254.14795 C50.29095 239.17795 72.94932 212.78214 84.42432 180.66602 C88.97159 166.66541 90.91639 152.61975 90.84863 137.90186 C90.84372 136.6306 90.8388 135.35934 90.83374 134.04956 C90.71415 124.42541 89.93029 115.46676 87.53613 106.15186 C87.37516 105.51103 87.21419 104.87021 87.04834 104.20996 C82.01753 84.72946 72.59779 66.30332 58.75098 51.64014 C57.53613 50.15186 57.53613 50.15186 57.53613 48.15186 C56.87613 48.15186 56.21613 48.15186 55.53613 48.15186 C54.19218 46.49374 52.86082 44.8254 51.53613 43.15186 C27.59127 21.50203 -4.36968 6.3513 -37.21387 7.21436 C-37.95121 7.26721 -38.68855 7.32006 -39.44824 7.37451 C-42.19735 7.07083 -43.48346 6.04025 -45.46387 4.15186 C-45.96387 1.15186 -45.96387 1.15186 -45.46387 -1.84814 C-36.6039 -10.7499 -10.77736 -2.89309 0 0 Z " fill="#D49E1E" transform="translate(369.4638671875,149.84814453125)"/>
<path d="M0 0 C0.34819 0.00155 0.34819 0.00155 2.11027 0.00939 C2.84899 0.00485 3.5877 0.00032 4.3488 -0.00435 C6.83699 -0.01706 9.32495 -0.01536 11.81317 -0.01372 C13.59183 -0.0197 15.37048 -0.0265 17.14914 -0.03407 C21.98999 -0.05178 26.83077 -0.05643 31.67165 -0.0577 C35.70765 -0.0596 39.74363 -0.06695 43.77962 -0.07405 C53.29846 -0.09035 62.81726 -0.09521 72.33612 -0.09379 C82.16778 -0.09259 91.99922 -0.1137 101.83083 -0.14528 C110.26143 -0.1714 118.69196 -0.18216 127.1226 -0.18088 C132.16247 -0.18037 137.20214 -0.18613 142.24197 -0.20724 C146.98047 -0.22654 151.71858 -0.2268 156.45709 -0.21221 C158.19901 -0.21011 159.94096 -0.21488 161.68284 -0.22693 C164.05559 -0.24228 166.42701 -0.23314 168.79972 -0.21767 C169.1468 -0.22281 169.1468 -0.22281 170.90324 -0.24884 C173.98262 -0.20425 175.62021 -0.08298 177.94585 2.01791 C179.13866 4.52988 179.39554 6.14195 179.39944 8.91367 C179.4079 9.84039 179.41636 10.76711 179.42508 11.72191 C179.42204 12.22665 179.42204 12.22665 179.40667 14.78096 C179.4093 15.31529 179.4093 15.31529 179.4226 18.01932 C179.43582 21.55452 179.42706 25.08926 179.41693 28.62447 C179.41895 31.07779 179.42186 33.53112 179.42562 35.98444 C179.43005 41.12663 179.42361 46.26867 179.4096 51.41084 C179.3925 58.01103 179.40236 64.61084 179.42032 71.21101 C179.43115 76.27667 179.42772 81.34225 179.41994 86.40791 C179.41793 88.84205 179.4204 91.2762 179.42738 93.71033 C179.43497 97.10779 179.42341 100.50464 179.40667 103.90206 C179.41275 104.91357 179.41882 105.92508 179.42508 106.96724 C179.42085 107.42919 179.42085 107.42919 179.39944 109.76694 C179.39831 110.57016 179.39718 111.37337 179.39601 112.20093 C178.92036 114.81642 178.13554 115.70557 176.01849 117.27681 C172.95599 117.58931 172.95599 117.58931 170.01849 117.27681 C167.20508 114.46341 167.34937 112.18125 167.01849 108.27681 C167.31305 106.60286 167.63922 104.93363 168.01849 103.27681 C167.46583 103.28347 166.91317 103.29013 166.34376 103.297 C160.58492 103.36344 154.8262 103.40865 149.06707 103.44161 C146.91859 103.45668 144.77014 103.47714 142.62176 103.50313 C139.53127 103.53957 136.44119 103.55655 133.35052 103.56978 C132.87126 103.57752 132.87126 103.57752 130.44593 103.6167 C125.51167 103.61794 121.97757 103.59415 118.01849 100.27681 C116.79627 97.75089 116.85933 96.74102 117.76849 94.08931 C119.01849 92.27681 119.01849 92.27681 122.01849 91.27681 C123.53757 91.19012 125.06018 91.15912 126.58172 91.16329 C127.51529 91.16341 128.44885 91.16353 129.4107 91.16365 C130.38858 91.16877 131.36645 91.17388 132.37396 91.17915 C133.27521 91.18016 134.17647 91.18117 135.10504 91.18221 C138.47203 91.18744 141.83901 91.2014 145.20599 91.21431 C148.97005 91.22462 148.97005 91.22462 168.01849 91.27681 C168.01849 64.87681 168.01849 38.47681 168.01849 11.27681 C139.30849 11.27681 110.59849 11.27681 81.01849 11.27681 C81.01849 37.67681 81.01849 64.07681 81.01849 91.27681 C87.28849 91.27681 93.55849 91.27681 100.01849 91.27681 C101.33849 92.59681 102.65849 93.91681 104.01849 95.27681 C103.76849 98.52681 103.76849 98.52681 103.01849 101.27681 C97.47989 103.59766 92.35718 103.60979 86.45599 103.58931 C85.98967 103.59737 85.98967 103.59737 83.62982 103.63814 C78.65123 103.64169 75.00487 103.62733 71.01849 100.27681 C69.51692 97.27367 69.92568 94.48614 69.95599 91.15181 C69.96501 89.87048 69.97404 88.58915 69.98333 87.269 C69.99494 86.28158 70.00654 85.29415 70.01849 84.27681 C68.03849 83.94681 66.05849 83.61681 64.01849 83.27681 C62.83099 80.52681 62.83099 80.52681 62.01849 77.27681 C63.08099 74.90181 63.08099 74.90181 65.01849 73.27681 C66.66849 73.27681 68.31849 73.27681 70.01849 73.27681 C70.01849 52.81681 70.01849 32.35681 70.01849 11.27681 C47.90849 11.27681 25.79849 11.27681 3.01849 11.27681 C3.01849 31.73681 3.01849 52.19681 3.01849 73.27681 C24.83099 73.08931 24.83099 73.08931 31.70916 73.00655 C33.50628 72.99779 35.3034 72.99014 37.10052 72.98384 C38.03521 72.96849 38.9699 72.95315 39.93292 72.93733 C40.82588 72.93697 41.71883 72.93661 42.63885 72.93623 C43.41384 72.92957 44.18884 72.92291 44.98732 72.91605 C47.56686 73.37421 48.44136 74.21992 50.01849 76.27681 C50.45599 78.77681 50.45599 78.77681 50.01849 81.27681 C48.33099 83.08931 48.33099 83.08931 46.01849 84.27681 C44.35248 84.32357 42.68433 84.3293 41.01849 84.27681 C41.02373 84.8017 41.02373 84.8017 41.05023 87.45796 C41.08637 91.34546 41.10937 95.23294 41.12835 99.12056 C41.13842 100.80451 41.15208 102.48843 41.16937 104.17232 C41.19357 106.59001 41.20496 109.00746 41.2138 111.42525 C41.22412 112.18051 41.23445 112.93577 41.24508 113.71391 C41.24548 115.56975 41.14072 117.425 41.01849 119.27681 C39.01849 121.27681 39.01849 121.27681 36.08099 121.58931 C33.01849 121.27681 33.01849 121.27681 31.34539 120.24043 C29.29504 117.20622 29.65042 114.07823 29.72552 110.54634 C29.72977 109.79592 29.73401 109.0455 29.73838 108.27234 C29.75517 105.87763 29.79281 103.48377 29.83099 101.08931 C29.84604 99.46497 29.85973 97.84062 29.87201 96.21626 C29.90251 92.23586 29.96123 88.25728 30.01849 84.27681 C21.10849 84.27681 12.19849 84.27681 3.01849 84.27681 C3.01849 91.20681 3.01849 98.13681 3.01849 105.27681 C-0.28151 105.27681 -3.58151 105.27681 -6.98151 105.27681 C-7.02777 91.88183 -7.06335 78.48688 -7.08513 65.09184 C-7.09559 58.87254 -7.10978 52.6533 -7.13239 46.43404 C-7.15406 40.43646 -7.16607 34.43893 -7.17126 28.44131 C-7.17497 26.14868 -7.18221 23.85606 -7.19297 21.56345 C-7.20741 18.36188 -7.20949 15.16053 -7.20856 11.95894 C-7.21575 11.003 -7.22294 10.04707 -7.23035 9.06217 C-7.2276 8.19276 -7.22485 7.32335 -7.22202 6.4276 C-7.22386 5.66988 -7.22571 4.91217 -7.22761 4.1315 C-6.65268 -0.20136 -3.6705 0.03742 0 0 Z " fill="#D49E1E" transform="translate(619.9815101027489,219.723188996315)"/>
<path d="M0 0 C2 2 2 2 2.55859 4.69922 C1.7218 9.64392 -1.23537 11.64451 -4.9375 14.8125 C-6.32551 16.04672 -7.71224 17.2824 -9.09766 18.51953 C-9.772 19.11459 -10.44634 19.70966 -11.14111 20.32275 C-14.15041 23.038 -16.91873 25.97335 -19.67969 28.9375 C-26.50544 35.00484 -34.70014 39.10909 -42.78125 43.23438 C-43.94048 43.83071 -45.09971 44.42704 -46.29407 45.04144 C-62.2904 53.25331 -78.40356 61.23691 -94.5 69.25 C-130.9841 87.41294 -130.9841 87.41294 -146.88855 95.88226 C-153.07096 99.15504 -159.29935 102.33888 -165.53955 105.49976 C-167.1244 106.30577 -168.70635 107.11749 -170.28564 107.93433 C-172.61876 109.14019 -174.9604 110.32775 -177.30469 111.51172 C-177.65571 111.69548 -177.65571 111.69548 -179.4321 112.62541 C-182.42198 114.11423 -184.50963 115.03554 -187.88013 114.79126 C-192.67903 113.00003 -194.08539 109.21374 -196.1875 104.75 C-196.7173 103.65172 -197.24711 102.55344 -197.79297 101.42188 C-199.15992 97.54663 -199.66094 95.06878 -199 91 C-194.49766 86.02413 -188.36323 83.36902 -182.4375 80.375 C-180.36567 79.31292 -178.29406 78.25041 -176.22266 77.1875 C-175.17997 76.65512 -174.13728 76.12273 -173.06299 75.57422 C-170.21687 74.11146 -167.38486 72.62569 -164.55859 71.125 C-155.16621 66.13818 -145.72797 61.32531 -136.06787 56.87451 C-130.55913 54.31016 -125.18769 51.531 -119.82422 48.67969 C-106.52002 41.61976 -93.01644 34.95203 -79.53741 28.23438 C-76.02095 26.4813 -72.50564 24.72591 -68.99023 22.9707 C-55.2303 16.10125 -55.2303 16.10125 -50.13966 13.57375 C-48.14858 12.57572 -46.16474 11.56304 -44.19127 10.53062 C-39.19387 7.93192 -34.71313 6.15255 -29.19922 4.98047 C-28.51495 4.83217 -27.83069 4.68387 -27.12569 4.53108 C-25.70128 4.22504 -24.27548 3.92537 -22.84839 3.63208 C-20.67094 3.18409 -18.4986 2.71581 -16.32617 2.24414 C-3.98823 -0.38385 -3.98823 -0.38385 0 0 Z M-28.25 15 C-29.4875 15.33 -30.725 15.66 -32 16 C-31.34 18.31 -30.68 20.62 -30 23 C-26.78956 21.61812 -24.95064 20.07578 -22.75 17.375 C-22.22922 16.74336 -21.70844 16.11172 -21.17188 15.46094 C-20.78516 14.97883 -20.39844 14.49672 -20 14 C-23.19892 14 -25.25408 14.20109 -28.25 15 Z M-50.39062 24.90234 C-51.00723 25.21487 -51.62384 25.5274 -52.25914 25.8494 C-54.26197 26.86768 -56.25581 27.9024 -58.25 28.9375 C-59.63263 29.64431 -61.01585 30.34995 -62.39966 31.05444 C-65.0963 32.42888 -67.78994 33.80891 -70.48096 35.19434 C-74.36551 37.18755 -78.27141 39.1324 -82.1875 41.0625 C-86.50245 43.20904 -90.78882 45.40553 -95.05859 47.64062 C-97.08066 48.69804 -99.1028 49.75533 -101.125 50.8125 C-102.19307 51.37179 -103.26114 51.93108 -104.36157 52.50732 C-112.48241 56.7383 -120.66691 60.83417 -128.87519 64.89279 C-130.71951 65.80507 -132.56321 66.7186 -134.40671 67.63255 C-135.64727 68.24748 -136.88784 68.86239 -138.12842 69.47729 C-138.74583 69.78335 -139.36324 70.0894 -139.99936 70.40473 C-143.74384 72.25962 -147.49286 74.10497 -151.24504 75.94423 C-154.18019 77.38612 -157.10903 78.84072 -160.03906 80.29297 C-161.12949 80.82369 -162.21991 81.35441 -163.34338 81.90121 C-164.33818 82.39683 -165.33297 82.89244 -166.35791 83.40308 C-167.23356 83.83384 -168.1092 84.2646 -169.01138 84.70842 C-171 86 -171 86 -172 89 C-170.5625 92.1875 -170.5625 92.1875 -169 95 C-168.17927 94.58927 -167.35854 94.17854 -166.51294 93.75537 C-158.69453 89.844 -150.87313 85.93864 -143.04953 82.03766 C-138.6941 79.8658 -134.3395 77.69227 -129.98506 75.51844 C-126.76881 73.91291 -123.55219 72.30815 -120.33472 70.70508 C-107.72777 64.42319 -95.13096 58.13479 -82.69138 51.52533 C-73.81181 46.81622 -64.81106 42.35117 -55.8125 37.875 C-54.06826 37.0054 -52.32412 36.13561 -50.58008 35.26562 C-46.38781 33.17489 -42.19428 31.0867 -38 29 C-39.4452 23.33965 -39.4452 23.33965 -41.72559 21.9436 C-45.11429 22.02763 -47.38459 23.35768 -50.39062 24.90234 Z M-188 95 C-187.01 97.31 -186.02 99.62 -185 102 C-182.625 101.6875 -182.625 101.6875 -180 101 C-179.34 100.01 -178.68 99.02 -178 98 C-178.495 97.01 -178.495 97.01 -181 92 C-183.37221 92 -185.92878 93.94235 -188 95 Z " fill="#D49E1E" transform="translate(753,360)"/>
<path d="M0 0 C10.22949 9.41872 15.38833 21.04261 15.95898 34.73828 C16.27667 49.4621 11.3877 62.02767 1.31641 72.88281 C-8.84501 82.32164 -21.28954 86.72499 -35.00854 86.54077 C-48.90657 85.95682 -60.68378 80.30928 -70.24609 70.25781 C-79.44647 59.38165 -83.0488 46.98234 -82.71875 32.84766 C-81.50578 19.66858 -75.5901 8.26038 -66.05859 -0.82031 C-46.27817 -16.34564 -19.46324 -15.83993 0 0 Z M-57.37109 13.07031 C-63.86208 20.94236 -66.9747 29.08848 -66.66016 39.29688 C-65.64263 49.05964 -61.73808 56.54049 -54.37109 63.07031 C-45.34579 69.53564 -37.41772 70.85314 -26.37109 70.07031 C-17.93286 68.57826 -11.38771 63.84702 -6.05859 57.25781 C-0.21794 48.80716 0.62242 40.20187 -0.37109 30.07031 C-2.12179 21.79534 -7.0976 15.57303 -13.37109 10.07031 C-26.95813 1.39689 -45.33454 1.21476 -57.37109 13.07031 Z " fill="#D49E1E" transform="translate(359.37109375,525.9296875)"/>
<path d="M0 0 C1.45407 2.90814 0.52881 4.60518 -0.26343 7.73486 C-0.56381 8.93596 -0.8642 10.13705 -1.17369 11.37454 C-1.51018 12.68984 -1.84681 14.00509 -2.18359 15.32031 C-2.52194 16.66251 -2.85967 18.00487 -3.19679 19.34738 C-4.08656 22.88353 -4.98479 26.41748 -5.88477 29.95105 C-6.80132 33.55592 -7.70998 37.16279 -8.61914 40.76953 C-10.4042 47.84857 -12.20244 54.92408 -14 62 C-1.46 62.33 11.08 62.66 24 63 C21.34375 66.98437 18.83922 70.5433 15.8125 74.1875 C15.41611 74.66703 15.41611 74.66703 13.41016 77.09375 C13.01248 77.57328 13.01248 77.57328 11 80 C9.58178 81.72789 8.16511 83.45706 6.75 85.1875 C6.0075 86.095 5.265 87.0025 4.5 87.9375 C0.45607 92.89131 -3.57484 97.85568 -7.60547 102.82031 C-9.83525 105.56673 -12.06704 108.31149 -14.30078 111.05469 C-19.80262 117.81299 -25.29148 124.58164 -30.75 131.375 C-31.26377 132.01188 -31.77754 132.64875 -32.30688 133.30493 C-35.88389 137.76777 -35.88389 137.76777 -37 140 C-37.66 140 -38.32 140 -39 140 C-35.98248 126.0664 -32.65737 112.21785 -29.25 98.375 C-28.7381 96.28911 -28.22638 94.20317 -27.71484 92.11719 C-26.47893 87.07754 -25.2394 82.0388 -24 77 C-35.55 76.67 -47.1 76.34 -59 76 C-57.51998 73.03997 -56.45401 71.14788 -54.41797 68.70703 C-53.9046 68.0853 -53.39123 67.46357 -52.8623 66.823 C-52.58596 66.49127 -52.58596 66.49127 -51.1875 64.8125 C-46.42046 59.02481 -41.77844 53.16369 -37.25 47.1875 C-33.08699 41.69984 -28.84121 36.31209 -24.44531 31.00781 C-20.5873 26.26233 -16.8587 21.41709 -13.11304 16.58276 C-8.79461 11.01172 -4.43363 5.48007 0 0 Z " fill="#D49E1E" transform="translate(347,225)"/>
<path d="M0 0 C1.14362 -0.00716 2.28724 -0.01431 3.46552 -0.02168 C7.24565 -0.03859 11.02459 -0.01915 14.80469 0.0022 C17.43115 0.00137 20.05762 -0.00109 22.68408 -0.00511 C28.18862 -0.00963 33.69281 0.00622 39.19727 0.03418 C45.5555 0.06623 51.91312 0.06622 58.2714 0.04896 C64.3952 0.03308 70.51873 0.03994 76.64252 0.0569 C79.24525 0.06209 81.84801 0.0616 84.45074 0.05536 C88.08734 0.04991 91.7229 0.07026 95.35938 0.09766 C96.43693 0.09113 97.51449 0.0846 98.62469 0.07788 C105.92015 0.17141 105.92015 0.17141 109.83643 2.54164 C112.29646 5.33026 112.57601 7.06395 112.82422 10.66626 C112.53339 14.61998 110.373 16.93779 107.67969 19.6311 C105.57068 19.88837 105.57068 19.88837 102.91043 19.89853 C101.90376 19.90706 100.8971 19.91559 99.85992 19.92438 C99.30562 19.92392 99.30562 19.92392 96.50049 19.92163 C95.91834 19.92499 95.91834 19.92499 92.97232 19.94199 C89.1065 19.96105 85.24086 19.96489 81.375 19.96704 C79.37341 19.97184 77.37182 19.97664 75.37024 19.98196 C69.07315 19.99826 62.77611 20.00313 56.479 20.00171 C49.98169 20.00051 43.48471 20.0216 36.98749 20.0532 C31.41119 20.07934 25.83501 20.09008 20.25866 20.0888 C16.9273 20.08829 13.5963 20.09583 10.26499 20.11515 C6.54893 20.13469 2.83374 20.12902 -0.88232 20.11694 C-1.98689 20.12818 -3.09146 20.13942 -4.22949 20.151 C-5.2418 20.14261 -6.25411 20.13422 -7.29709 20.12558 C-7.73641 20.12612 -7.73641 20.12612 -9.95962 20.12888 C-13.11015 19.46456 -14.31809 18.096 -16.32031 15.6311 C-16.88672 13.22876 -16.88672 13.22876 -16.88281 10.6936 C-16.90473 9.85958 -16.92664 9.02556 -16.94922 8.16626 C-14.77533 -0.5968 -7.42299 -0.08054 0 0 Z " fill="#D49E1E" transform="translate(278.3203125,633.368896484375)"/>
<path d="M0 0 C7.61157 3.88041 11.37717 9.72281 14.20703 17.50781 C17.31695 27.28183 15.33939 37.15187 11.3125 46.5 C8.85399 50.82101 5.46624 53.8379 1 56 C-3.5512 57.01659 -7.55397 56.52065 -11.75 54.5 C-17.89656 50.43075 -20.65219 43.52375 -22.49609 36.63281 C-24.24177 27.51198 -23.31544 17.82891 -18.67578 9.67188 C-13.93619 2.95435 -8.5501 -1.67918 0 0 Z M-8.5625 12.4375 C-12.58911 17.7606 -14.3573 23.39691 -13.9375 30.0625 C-13.06498 36.21806 -10.78596 41.87841 -6 46 C-3.5625 46.5 -3.5625 46.5 -1 46 C4.29545 41.01605 6.15285 34.58685 6.4375 27.5 C6.24596 20.92396 4.0472 16.559 0 11.5 C-3.56137 8.82897 -5.49253 9.51728 -8.5625 12.4375 Z " fill="#D49E1E" transform="translate(592,540)"/>
<path d="M0 0 C7.31926 -0.54482 7.31926 -0.54482 10.32935 1.86426 C10.93867 2.71858 11.54799 3.57291 12.17578 4.45312 C12.85834 5.38254 13.5409 6.31195 14.24414 7.26953 C14.9267 8.25309 15.60926 9.23664 16.3125 10.25 C17.01439 11.21809 17.71629 12.18617 18.43945 13.18359 C19.7439 14.98669 21.03785 16.79747 22.31763 18.61816 C23.83982 20.77323 25.41693 22.88925 27 25 C27.33 16.75 27.66 8.5 28 0 C30.64 0 33.28 0 36 0 C36 13.2 36 26.4 36 40 C29 40 29 40 26.91797 38.48828 C26.34691 37.77027 25.77586 37.05227 25.1875 36.3125 C24.52879 35.50168 23.87008 34.69086 23.19141 33.85547 C22.46824 32.91316 21.74508 31.97086 21 31 C20.11398 29.87055 19.22723 28.74167 18.33984 27.61328 C15.11518 23.48375 11.90773 19.3616 9 15 C8.67 23.25 8.34 31.5 8 40 C5.69 40 3.38 40 1 40 C0 39 0 39 -0.11353 35.3064 C-0.11337 33.66129 -0.10767 32.01617 -0.09766 30.37109 C-0.09624 29.50686 -0.09483 28.64263 -0.09337 27.75221 C-0.08775 24.98061 -0.0752 22.20908 -0.0625 19.4375 C-0.05749 17.56315 -0.05292 15.6888 -0.04883 13.81445 C-0.03778 9.2096 -0.0205 4.60482 0 0 Z " fill="#D49E1E" transform="translate(312,850)"/>
<path d="M0 0 C3.94942 0.60064 6.90554 1.82552 10.40234 3.73828 C11.44745 4.30571 12.49256 4.87314 13.56934 5.45776 C14.68083 6.06983 15.79232 6.68189 16.9375 7.3125 C18.68317 8.26324 20.42884 9.21399 22.17453 10.16469 C23.95548 11.13623 25.73465 12.11096 27.51318 13.08691 C31.80279 15.44046 36.09746 17.78466 40.39282 20.12769 C42.25241 21.14289 44.11103 22.15989 45.96851 23.17896 C50.27461 25.53776 54.58831 27.84462 59 30 C58.42366 34.75482 56.44931 37.97048 54 42 C50.24364 41.40922 47.39829 40.34025 44.07031 38.51562 C43.12084 37.99863 42.17136 37.48164 41.19312 36.94897 C40.18064 36.38831 39.16816 35.82765 38.125 35.25 C37.59975 34.96226 37.59975 34.96226 34.94165 33.5061 C21.54826 26.14568 8.26536 18.58801 -5 11 C-3.77473 6.94718 -2.3012 3.55639 0 0 Z " fill="#D49E1E" transform="translate(201,176)"/>
<path d="M0 0 C7 0 7 0 8.98462 1.52539 C9.4963 2.22857 10.00797 2.93176 10.53516 3.65625 C11.11717 4.43227 11.69918 5.20828 12.29883 6.00781 C12.88084 6.83023 13.46285 7.65266 14.0625 8.5 C14.64838 9.29148 15.23426 10.08297 15.83789 10.89844 C16.9503 12.40469 18.05382 13.91759 19.14478 15.43945 C21.71887 18.99217 24.36766 22.49022 27 26 C27.33 17.42 27.66 8.84 28 0 C30.31 0 32.62 0 35 0 C36.05435 4.30326 36.14528 8.48676 36.13281 12.89062 C36.13377 13.63584 36.13473 14.38106 36.13571 15.14886 C36.13639 16.71545 36.13456 18.28205 36.13037 19.84863 C36.12499 22.25592 36.13035 24.66303 36.13672 27.07031 C36.13606 28.59375 36.13478 30.11719 36.13281 31.64062 C36.13484 32.36349 36.13686 33.08635 36.13895 33.83112 C36.11497 38.88503 36.11497 38.88503 35 40 C31.875 40.5625 31.875 40.5625 28 40 C25.12206 37.79757 23.14719 34.89473 21 32 C19.96443 30.63474 18.92789 29.27022 17.89062 27.90625 C14.89513 23.96003 11.95205 19.98029 9 16 C8.67 23.59 8.34 31.18 8 39 C4 40 4 40 0 39 C0 26.13 0 13.26 0 0 Z " fill="#D49E1E" transform="translate(618,914)"/>
<path d="M0 0 C6.47568 -0.38944 6.47568 -0.38944 8.78516 1.32593 C9.20668 1.93896 9.6282 2.55199 10.0625 3.18359 C10.54977 3.86486 11.03703 4.54613 11.53906 5.24805 C12.02117 5.97057 12.50328 6.69309 13 7.4375 C13.97812 8.83276 14.9573 10.22729 15.9375 11.62109 C16.94813 13.06613 17.95875 14.51117 19 16 C21.31 18.97 23.62 21.94 26 25 C26.33 16.75 26.66 8.5 27 0 C29.64 0 32.28 0 35 0 C35 13.2 35 26.4 35 40 C27 40 27 40 24.34766 37.57812 C23.55959 36.48731 22.79884 35.37638 22.0625 34.25 C21.22267 33.06379 20.38283 31.87759 19.54297 30.69141 C19.1258 30.08184 18.70862 29.47228 18.27881 28.84424 C16.64684 26.49069 14.92911 24.20945 13.19653 21.92944 C11.45152 19.62931 9.72783 17.31307 8 15 C7.67 23.25 7.34 31.5 7 40 C4.69 40 2.38 40 0 40 C-1.64311 36.71377 -0.99749 33.09273 -0.87891 29.49219 C-0.8553 28.65157 -0.83168 27.81095 -0.80736 26.94485 C-0.73066 24.25473 -0.64666 21.5649 -0.5625 18.875 C-0.50929 17.0534 -0.45654 15.23178 -0.4043 13.41016 C-0.27504 8.93992 -0.13923 4.46993 0 0 Z " fill="#D49E1E" transform="translate(170,850)"/>
<path d="M0 0 C3.70807 -0.11675 7.41566 -0.18743 11.125 -0.25 C12.17172 -0.28352 13.21844 -0.31703 14.29688 -0.35156 C20.55907 -0.43083 24.24373 -0.20777 29 4 C32.28767 7.28767 32.8414 10.4006 33 15 C31.21088 20.26211 28.30058 22.75068 24 26 C24.64969 26.84305 25.29938 27.68609 25.96875 28.55469 C26.81275 29.66127 27.65649 30.76805 28.5 31.875 C28.92926 32.43059 29.35852 32.98617 29.80078 33.55859 C33 37.77344 33 37.77344 33 40 C29.68821 40.66236 28.16659 40.96194 25 40 C21.48419 36.70088 18.62178 33.04191 16 29 C16 28.34 16 27.68 16 27 C13.36 27 10.72 27 8 27 C8 31.29 8 35.58 8 40 C5.66705 40.04242 3.33297 40.04093 1 40 C0 39 0 39 -0.11353 35.3064 C-0.11337 33.66129 -0.10767 32.01617 -0.09766 30.37109 C-0.09624 29.50686 -0.09483 28.64263 -0.09337 27.75221 C-0.08775 24.98061 -0.0752 22.20908 -0.0625 19.4375 C-0.05749 17.56315 -0.05292 15.6888 -0.04883 13.81445 C-0.03778 9.2096 -0.0205 4.60482 0 0 Z M8 8 C8 11.96 8 15.92 8 20 C18.04459 20.36306 18.04459 20.36306 22.125 18.8125 C24 17 24 17 25 14.5625 C25 12 25 12 23.94922 9.85547 C22 8 22 8 18.64453 7.60938 C17.37996 7.65578 16.11539 7.70219 14.8125 7.75 C13.5402 7.78609 12.26789 7.82219 10.95703 7.85938 C10.46912 7.88258 10.46912 7.88258 8 8 Z " fill="#D49E1E" transform="translate(760,850)"/>
<path d="M0 0 C3.34125 -0.06187 6.6825 -0.12375 10.125 -0.1875 C10.64586 -0.20116 10.64586 -0.20116 13.28174 -0.27026 C18.61336 -0.31795 22.42317 -0.06089 27 3 C31.89946 8.42914 31.89946 8.42914 32.125 11.95312 C31.92799 15.57315 31.76977 18.08994 29.37109 20.92578 C27.63571 22.39473 25.89181 23.74044 24 25 C26.01559 28.73258 27.96835 32.1029 30.75 35.3125 C33 38 33 38 33 40 C29.74584 40.83085 27.23138 40.9954 24 40 C21.34953 37.03306 19.41023 34.12021 17.33594 30.72266 C15 28 15 28 11.22656 27.12109 C10.1618 27.08113 9.09703 27.04117 8 27 C8.0116 27.85465 8.0232 28.7093 8.03516 29.58984 C8.04418 30.69457 8.0532 31.7993 8.0625 32.9375 C8.0741 34.03965 8.0857 35.1418 8.09766 36.27734 C8 39 8 39 7 40 C4.69 40 2.38 40 0 40 C0 26.8 0 13.6 0 0 Z M8 8 C8 11.96 8 15.92 8 20 C9.7325 20.04125 11.465 20.0825 13.25 20.125 C14.22453 20.1482 15.19906 20.17141 16.20312 20.19531 C19.0736 19.99486 20.66221 19.66064 23 18 C23.9375 14.5625 23.9375 14.5625 24 11 C22.92188 9.28906 22.92188 9.28906 21 8 C17.86328 7.70703 17.86328 7.70703 14.3125 7.8125 C13.13301 7.83957 11.95352 7.86664 10.73828 7.89453 C10.28646 7.91193 10.28646 7.91193 8 8 Z " fill="#D49E1E" transform="translate(460,850)"/>
<path d="M0 0 C0.94682 -0.02062 1.89363 -0.04125 2.86914 -0.0625 C8.28561 -0.09274 12.14913 0.17306 16.8125 3.25 C20.24878 6.68628 21.71469 9.3593 21.8125 14.25 C20.06365 20.11378 17.58322 22.75147 12.8125 26.25 C13.46219 27.09305 14.11188 27.93609 14.78125 28.80469 C15.62525 29.91127 16.46899 31.01805 17.3125 32.125 C17.74176 32.68059 18.17102 33.23617 18.61328 33.80859 C21.8125 38.02344 21.8125 38.02344 21.8125 40.25 C18.50464 40.91157 16.97505 41.21388 13.8125 40.25 C10.35205 36.9102 7.62565 33.13706 4.8125 29.25 C4.1525 28.59 3.4925 27.93 2.8125 27.25 C1.1625 27.25 -0.4875 27.25 -2.1875 27.25 C-2.5175 31.54 -2.8475 35.83 -3.1875 40.25 C-5.52045 40.29242 -7.85453 40.29093 -10.1875 40.25 C-12.03027 38.40723 -11.31624 35.82036 -11.32645 33.36865 C-11.32442 32.54575 -11.3224 31.72284 -11.32031 30.875 C-11.32127 30.03534 -11.32223 29.19567 -11.32321 28.33057 C-11.32389 26.55176 -11.32204 24.77295 -11.31787 22.99414 C-11.31252 20.26166 -11.31782 17.52935 -11.32422 14.79688 C-11.32356 13.07292 -11.32228 11.34896 -11.32031 9.625 C-11.32132 9.21355 -11.32132 9.21355 -11.32645 7.13135 C-11.28957 -1.73145 -7.82064 0.04174 0 0 Z M-3.1875 8.25 C-3.1875 12.21 -3.1875 16.17 -3.1875 20.25 C-1.29 20.29125 0.6075 20.3325 2.5625 20.375 C3.62984 20.3982 4.69719 20.42141 5.79688 20.44531 C8.77058 20.25271 10.39063 19.95155 12.8125 18.25 C13.86989 15.00734 14.26281 13.18758 12.76562 10.07031 C10.8125 8.25 10.8125 8.25 7.45703 7.85938 C6.19246 7.90578 4.92789 7.95219 3.625 8 C2.3527 8.03609 1.08039 8.07219 -0.23047 8.10938 C-0.71838 8.13258 -0.71838 8.13258 -3.1875 8.25 Z " fill="#D49E1E" transform="translate(536.1875,913.75)"/>
<path d="M0 0 C2.17969 1.10547 2.17969 1.10547 5.36719 3.10547 C3.84146 6.43183 2.43374 8.0611 -0.63281 10.10547 C-1.43719 9.58984 -2.24156 9.07422 -3.07031 8.54297 C-7.59494 6.71724 -10.96176 6.7823 -15.63281 8.10547 C-18.62734 10.35136 -19.44904 11.55416 -20.63281 15.10547 C-21.05155 19.4056 -21.08783 23.03617 -19.38281 27.04297 C-17.04205 29.80173 -14.98885 30.94566 -11.37891 31.37109 C-10.61707 31.36594 -9.85523 31.36078 -9.07031 31.35547 C-8.68811 31.35805 -8.68811 31.35805 -6.75391 31.37109 C-4.63281 31.10547 -4.63281 31.10547 -1.63281 29.10547 C-0.94531 25.98047 -0.94531 25.98047 -0.63281 23.10547 C-1.93219 23.12609 -3.23156 23.14672 -4.57031 23.16797 C-5.92447 23.18946 -7.28037 23.17695 -8.63281 23.10547 C-8.96281 22.77547 -9.29281 22.44547 -9.63281 22.10547 C-9.63281 20.12547 -9.63281 18.14547 -9.63281 16.10547 C-4.35281 16.10547 0.92719 16.10547 6.36719 16.10547 C6.52935 19.02436 6.6481 21.93426 6.74219 24.85547 C6.79246 25.68047 6.84273 26.50547 6.89453 27.35547 C6.95227 29.74214 6.92491 31.78217 6.36719 34.10547 C0.77058 39.06995 -4.44276 39.39824 -11.62109 39.32031 C-16.98182 38.9379 -20.18674 37.28862 -24.38281 33.85547 C-28.78355 28.47679 -30.22566 23.4335 -29.97656 16.59375 C-29.03395 9.77055 -25.52863 5.4947 -20.31641 1.23438 C-14.87867 -2.41181 -5.99189 -2.03582 0 0 Z " fill="#D49E1E" transform="translate(247.6328125,850.89453125)"/>
<path d="M0 0 C1.88323 0.94497 3.70407 2.01251 5.50781 3.10156 C4.76562 6.88281 4.76562 6.88281 2.44531 8.85156 C1.80594 9.26406 1.16656 9.67656 0.50781 10.10156 C-0.29656 9.58594 -1.10094 9.07031 -1.92969 8.53906 C-6.48017 6.7029 -9.82132 6.5904 -14.49219 8.10156 C-17.92585 10.83447 -19.1886 12.25649 -19.89453 16.54688 C-20.07709 21.43949 -19.83645 25.27955 -16.49219 29.10156 C-13.52511 30.91619 -11.32511 31.35267 -7.86719 31.28906 C-7.47918 31.28584 -7.47918 31.28584 -5.51562 31.26953 C-3.49219 31.10156 -3.49219 31.10156 -1.49219 30.10156 C-1.07812 28.25391 -1.07812 28.25391 -0.86719 26.03906 C-0.74344 24.73969 -0.61969 23.44031 -0.49219 22.10156 C-3.13219 22.10156 -5.77219 22.10156 -8.49219 22.10156 C-8.49219 20.12156 -8.49219 18.14156 -8.49219 16.10156 C-3.21219 16.10156 2.06781 16.10156 7.50781 16.10156 C7.66997 19.02045 7.78872 21.93035 7.88281 24.85156 C7.93309 25.67656 7.98336 26.50156 8.03516 27.35156 C8.0929 29.73824 8.06554 31.77826 7.50781 34.10156 C1.7433 39.21499 -3.78873 39.45734 -11.19141 39.375 C-16.58772 38.92797 -20.39105 37.41861 -24.05078 33.38281 C-28.62607 27.26515 -29.22314 21.62732 -28.49219 14.10156 C-26.74483 8.16054 -23.50493 4.57979 -18.49219 1.10156 C-12.6418 -1.64928 -6.14716 -2.21606 0 0 Z " fill="#D49E1E" transform="translate(455.4921875,914.8984375)"/>
<path d="M0 0 C2.64 0 5.28 0 8 0 C8 5.28 8 10.56 8 16 C13.61 16 19.22 16 25 16 C25 10.72 25 5.44 25 0 C27.31 0 29.62 0 32 0 C33.24811 3.74434 33.14308 7.2333 33.13281 11.13281 C33.13377 11.92525 33.13473 12.71769 33.13571 13.53415 C33.13639 15.20685 33.13455 16.87955 33.13037 18.55225 C33.12501 21.12213 33.13033 23.69184 33.13672 26.26172 C33.13606 27.88542 33.13478 29.50912 33.13281 31.13281 C33.13484 31.9057 33.13686 32.67858 33.13895 33.47488 C33.11496 38.88504 33.11496 38.88504 32 40 C29.69 40 27.38 40 25 40 C24.67 34.72 24.34 29.44 24 24 C18.72 23.67 13.44 23.34 8 23 C8.0625 30.9375 8.0625 30.9375 8.09009 33.44116 C8.09724 35.29434 8.05029 37.14749 8 39 C7.835 39.165 7.835 39.165 7 40 C4.69 40 2.38 40 0 40 C0 26.8 0 13.6 0 0 Z " fill="#D49E1E" transform="translate(363,850)"/>
<path d="M0 0 C9.24 0 18.48 0 28 0 C28 2.64 28 5.28 28 8 C21.4 8 14.8 8 8 8 C8.33 10.64 8.66 13.28 9 16 C14.94 16 20.88 16 27 16 C27 18.31 27 20.62 27 23 C20.73 23 14.46 23 8 23 C8 26.3 8 29.6 8 33 C8.71607 32.9942 8.71607 32.9942 12.33984 32.96484 C14.20573 32.95547 16.07161 32.94637 17.9375 32.9375 C18.88303 32.92912 19.82855 32.92074 20.80273 32.91211 C21.25229 32.9105 21.25229 32.9105 23.52734 32.90234 C24.36 32.89711 25.19265 32.89187 26.05054 32.88647 C28 33 28 33 29 34 C29.125 36.5 29.125 36.5 29 39 C28 40 28 40 25.31616 40.11353 C24.14835 40.10829 22.98054 40.10305 21.77734 40.09766 C20.64289 40.09516 19.50843 40.09266 18.3396 40.09009 C17.61325 40.08554 17.61325 40.08554 13.9375 40.0625 C11.63781 40.05219 11.63781 40.05219 0 40 C0 26.8 0 13.6 0 0 Z " fill="#D49E1E" transform="translate(386,914)"/>
<path d="M0 0 C9.57 0 19.14 0 29 0 C29 2.31 29 4.62 29 7 C22.07 7 15.14 7 8 7 C8 9.97 8 12.94 8 16 C14.27 16 20.54 16 27 16 C27 18.31 27 20.62 27 23 C20.73 23 14.46 23 8 23 C8 26.3 8 29.6 8 33 C14.93 33 21.86 33 29 33 C29 35.31 29 37.62 29 40 C25.03069 40.02466 21.06141 40.04284 17.09204 40.05493 C15.7408 40.05997 14.38956 40.0668 13.03833 40.07544 C11.0998 40.08752 9.16122 40.0927 7.22266 40.09766 C6.63875 40.10027 6.63875 40.10027 3.68384 40.11353 C1 40 1 40 0 39 C-0.08865 36.11566 -0.11521 33.25538 -0.09766 30.37109 C-0.09624 29.50686 -0.09483 28.64263 -0.09337 27.75221 C-0.08775 24.98061 -0.0752 22.20908 -0.0625 19.4375 C-0.05749 17.56315 -0.05292 15.6888 -0.04883 13.81445 C-0.03863 9.20958 -0.01905 4.60488 0 0 Z " fill="#D49E1E" transform="translate(678,850)"/>
<path d="M0 0 C9.24 0 18.48 0 28 0 C28 2.31 28 4.62 28 7 C21.4 7 14.8 7 8 7 C8.33 9.97 8.66 12.94 9 16 C9.60779 15.9942 9.60779 15.9942 12.68359 15.96484 C14.26823 15.95547 15.85286 15.94637 17.4375 15.9375 C18.23994 15.92912 19.04238 15.92074 19.86914 15.91211 C21.91295 15.90349 23.95684 15.94772 26 16 C27 17 27 17 27 23 C20.73 23 14.46 23 8 23 C8 26.3 8 29.6 8 33 C14.93 33 21.86 33 29 33 C29 35.31 29 37.62 29 40 C19.43 40 9.86 40 0 40 C0 26.8 0 13.6 0 0 Z " fill="#D49E1E" transform="translate(598,850)"/>
<path d="M0 0 C9.24 0 18.48 0 28 0 C28 2.31 28 4.62 28 7 C21.4 7 14.8 7 8 7 C8.33 9.97 8.66 12.94 9 16 C9.60779 15.9942 9.60779 15.9942 12.68359 15.96484 C14.26823 15.95547 15.85286 15.94637 17.4375 15.9375 C18.23994 15.92912 19.04238 15.92074 19.86914 15.91211 C21.91295 15.90349 23.95684 15.94772 26 16 C27 17 27 17 27 23 C20.73 23 14.46 23 8 23 C8 26.3 8 29.6 8 33 C14.93 33 21.86 33 29 33 C29 34.98 29 36.96 29 39 C28 40 28 40 25.31616 40.11353 C24.14835 40.10829 22.98054 40.10305 21.77734 40.09766 C20.64289 40.09516 19.50843 40.09266 18.3396 40.09009 C17.61325 40.08554 17.61325 40.08554 13.9375 40.0625 C11.63781 40.05219 11.63781 40.05219 0 40 C0 26.8 0 13.6 0 0 Z " fill="#D49E1E" transform="translate(269,850)"/>
<path d="M0 0 C1.13437 0.02062 2.26875 0.04125 3.4375 0.0625 C3.45208 0.89499 3.46667 1.72749 3.48169 2.58521 C3.54279 5.6774 3.61695 8.76892 3.69995 11.8606 C3.74951 13.85541 3.78401 15.85057 3.81836 17.8457 C3.85381 19.09932 3.88926 20.35293 3.92578 21.64453 C3.95197 22.80187 3.97815 23.9592 4.00513 25.15161 C4.4375 28.0625 4.4375 28.0625 5.83472 29.93872 C7.95541 31.42563 9.36431 31.46323 11.9375 31.4375 C12.71094 31.44523 13.48438 31.45297 14.28125 31.46094 C16.94807 30.96816 17.79931 30.19015 19.4375 28.0625 C20.47775 24.94175 20.53856 22.82353 20.5 19.55469 C20.49227 18.48605 20.48453 17.41742 20.47656 16.31641 C20.46367 15.20137 20.45078 14.08633 20.4375 12.9375 C20.41212 10.72661 20.39104 8.51566 20.375 6.30469 C20.3634 5.32355 20.3518 4.34241 20.33984 3.33154 C20.4375 1.0625 20.4375 1.0625 21.4375 0.0625 C24.9375 -0.0625 24.9375 -0.0625 28.4375 0.0625 C30.99765 2.62265 29.67206 9.68782 29.6875 13.125 C29.70812 14.24584 29.72875 15.36668 29.75 16.52148 C29.78468 23.9041 29.47218 30.0137 24.89453 36.12109 C19.71285 40.46583 15.79638 41.35902 9.14062 40.90625 C3.72751 40.107 0.94748 38.23456 -2.46875 34.01172 C-4.76019 29.92805 -4.69042 25.50814 -4.69531 20.92188 C-4.6966 19.76945 -4.69789 18.61703 -4.69922 17.42969 C-4.69535 16.23602 -4.69148 15.04234 -4.6875 13.8125 C-4.69137 12.60336 -4.69523 11.39422 -4.69922 10.14844 C-4.69793 9.00117 -4.69664 7.85391 -4.69531 6.67188 C-4.69418 5.61968 -4.69306 4.56748 -4.69189 3.4834 C-4.4846 -0.395 -4.0412 0.0709 0 0 Z " fill="#D49E1E" transform="translate(481.5625,913.9375)"/>
<path d="M0 0 C9.24 0 18.48 0 28 0 C28 2.64 28 5.28 28 8 C21.07 8 14.14 8 7 8 C7.33 10.64 7.66 13.28 8 16 C13.94 16.33 19.88 16.66 26 17 C26 18.98 26 20.96 26 23 C19.73 23 13.46 23 7 23 C7 26.3 7 29.6 7 33 C13.93 33 20.86 33 28 33 C28 35.31 28 37.62 28 40 C18.76 40 9.52 40 0 40 C-1.15777 36.52668 -1.12949 33.80002 -1.13281 30.13672 C-1.13377 29.46712 -1.13473 28.79751 -1.13571 28.10762 C-1.13639 26.69129 -1.13455 25.27496 -1.13037 23.85864 C-1.12505 21.70582 -1.13031 19.55321 -1.13672 17.40039 C-1.13606 16.02083 -1.13478 14.64128 -1.13281 13.26172 C-1.13168 12.0135 -1.13056 10.76529 -1.12939 9.47925 C-1 6 -1 6 0 0 Z " fill="#D49E1E" transform="translate(282,914)"/>
<path d="M0 0 C8.91 0 17.82 0 27 0 C28 2 28 2 27 7 C23.865 7.165 23.865 7.165 8 8 C8 10.64 8 13.28 8 16 C8.60779 15.9942 8.60779 15.9942 11.68359 15.96484 C13.26823 15.95547 14.85286 15.94637 16.4375 15.9375 C17.23994 15.92912 18.04238 15.92074 18.86914 15.91211 C20.91295 15.90349 22.95684 15.94772 25 16 C26 17 26 17 26 23 C19.73 23 13.46 23 7 23 C7 26.3 7 29.6 7 33 C13.93 33 20.86 33 28 33 C28 35.31 28 37.62 28 40 C18.76 40 9.52 40 0 40 C0 26.8 0 13.6 0 0 Z " fill="#D49E1E" transform="translate(126,850)"/>
<path d="M0 0 C2.97 0 5.94 0 9 0 C10.81495 4.46567 12.62973 8.93141 14.44434 13.39722 C15.06115 14.91514 15.67801 16.43304 16.29492 17.95093 C17.18372 20.13781 18.07235 22.32476 18.96094 24.51172 C19.23497 25.18587 19.50901 25.86003 19.79135 26.55461 C20.52859 28.36933 21.26435 30.18464 22 32 C22.39268 32.91757 22.78536 33.83514 23.18994 34.78052 C24 37 24 37 24 40 C21.36 40 18.72 40 16 40 C15.01 37.69 14.02 35.38 13 33 C7.39 33 1.78 33 -4 33 C-4.99 35.31 -5.98 37.62 -7 40 C-9.64 40 -12.28 40 -15 40 C-14.31844 35.77822 -12.94859 32.08409 -11.34766 28.125 C-11.08746 27.47805 -10.82727 26.8311 -10.55919 26.16455 C-9.73102 24.10804 -8.89688 22.054 -8.0625 20 C-7.50546 18.61995 -6.94882 17.23975 -6.39258 15.85938 C-5.36841 13.3193 -4.34151 10.78041 -3.31274 8.24219 C-2.20145 5.49754 -1.0972 2.7503 0 0 Z M4 8 C2.02 13.94 0.04 19.88 -2 26 C2.29 26 6.58 26 11 26 C9.02 20.06 7.04 14.12 5 8 C4.67 8 4.34 8 4 8 Z " fill="#D49E1E" transform="translate(423,850)"/>
<path d="M0 0 C2.64 0 5.28 0 8 0 C12.19135 8.57012 15.82284 17.33733 19.375 26.1875 C19.82794 27.31084 20.28089 28.43417 20.74756 29.59155 C21.1686 30.64802 21.58964 31.70449 22.02344 32.79297 C22.40419 33.74712 22.78495 34.70126 23.17725 35.68433 C24 38 24 38 24 40 C21.36 40 18.72 40 16 40 C13 34.25 13 34.25 13 32 C7.06 32 1.12 32 -5 32 C-5.165 32.99 -5.165 32.99 -6 38 C-8 40 -8 40 -11.625 40.125 C-12.73875 40.08375 -13.8525 40.0425 -15 40 C-14.38283 34.90224 -12.8184 30.66049 -10.83984 25.97656 C-10.53051 25.23039 -10.22118 24.48421 -9.90248 23.71542 C-8.92007 21.34944 -7.92894 18.98722 -6.9375 16.625 C-6.267 15.01456 -5.59707 13.40389 -4.92773 11.79297 C-3.29179 7.85918 -1.64802 3.92875 0 0 Z M4 9 C3.18167 10.89333 2.37058 12.78978 1.5625 14.6875 C1.11004 15.74324 0.65758 16.79898 0.19141 17.88672 C-1 21 -1 21 -2 26 C2.29 26 6.58 26 11 26 C9.02 20.39 7.04 14.78 5 9 C4.67 9 4.34 9 4 9 Z " fill="#D49E1E" transform="translate(882,850)"/>
<path d="M0 0 C2.35095 1.9939 2.35095 1.9939 2.97241 5.06787 C2.97036 6.33123 2.9683 7.59459 2.96619 8.89624 C2.97174 9.59412 2.97728 10.29199 2.983 11.01102 C2.99482 13.31851 2.97051 15.62404 2.9447 17.9314 C2.94299 19.53418 2.94306 21.13696 2.94482 22.73975 C2.94317 26.09915 2.92445 29.45789 2.89294 32.81714 C2.85327 37.12501 2.8489 41.43201 2.85641 45.74004 C2.85948 49.04976 2.84736 52.3593 2.83028 55.66898 C2.82324 57.2574 2.82012 58.84585 2.82097 60.4343 C2.81917 62.65379 2.79781 64.87224 2.77087 67.09155 C2.76245 68.35491 2.75404 69.61828 2.74536 70.91992 C2.35095 73.9939 2.35095 73.9939 0.98877 75.93701 C-0.64905 76.9939 -0.64905 76.9939 -3.27405 76.8064 C-5.64905 75.9939 -5.64905 75.9939 -6.64905 73.9939 C-6.74627 71.72734 -6.77702 69.45785 -6.77844 67.18921 C-6.78019 66.48987 -6.78195 65.79054 -6.78375 65.07001 C-6.78816 62.75295 -6.78524 60.43596 -6.78186 58.1189 C-6.78253 56.51229 -6.7835 54.90568 -6.78476 53.29907 C-6.78624 49.92976 -6.78409 46.56047 -6.77942 43.19116 C-6.77372 38.86657 -6.777 34.54203 -6.78299 30.21744 C-6.7866 26.89925 -6.78546 23.58107 -6.78286 20.26288 C-6.7822 18.66803 -6.78302 17.07318 -6.78534 15.47833 C-6.78788 13.25171 -6.78402 11.0252 -6.77844 8.79858 C-6.77765 7.52999 -6.77685 6.26139 -6.77603 4.95435 C-6.64905 1.9939 -6.64905 1.9939 -5.64905 -0.0061 C-2.64905 -1.0061 -2.64905 -1.0061 0 0 Z " fill="#D49E1E" transform="translate(535.6490478515625,169.006103515625)"/>
<path d="M0 0 C2.64 0 5.28 0 8 0 C11.83727 8.26904 15.41235 16.6303 18.875 25.0625 C19.13088 25.67472 19.38676 26.28695 19.65039 26.91772 C20.39683 28.70375 21.13221 30.49439 21.86719 32.28516 C22.30144 33.33582 22.73569 34.38649 23.18311 35.46899 C24 38 24 38 23 40 C20.69 40 18.38 40 16 40 C13 34.25 13 34.25 13 32 C7.06 32 1.12 32 -5 32 C-5.33 33.65 -5.66 35.3 -6 37 C-7.1875 38.8125 -7.1875 38.8125 -9 40 C-12.1875 40.1875 -12.1875 40.1875 -15 40 C-15.33 39.34 -15.66 38.68 -16 38 C-15.0289 35.27559 -13.98859 32.65498 -12.85156 30 C-12.51958 29.20852 -12.18759 28.41703 -11.84555 27.60156 C-10.77929 25.06458 -9.70221 22.53235 -8.625 20 C-7.90555 18.29196 -7.18679 16.58363 -6.46875 14.875 C-1.2985 2.59701 -1.2985 2.59701 0 0 Z M3 9 C2.16081 11.26882 1.32848 13.53977 0.5 15.8125 C0.26152 16.4551 0.02305 17.0977 -0.22266 17.75977 C-1.27069 20.64934 -2 22.90076 -2 26 C1.96 26 5.92 26 10 26 C8.79154 20.05064 7.25422 14.63556 5 9 C4.34 9 3.68 9 3 9 Z " fill="#D49E1E" transform="translate(582,914)"/>
<path d="M0 0 C2.97 0 5.94 0 9 0 C10.49375 3.66193 11.98706 7.32405 13.47998 10.98633 C14.23252 12.83212 14.9854 14.67778 15.73828 16.52344 C16.70697 18.89995 17.6738 21.27721 18.63867 23.65527 C19.50195 25.77631 20.37221 27.89453 21.25195 30.00879 C21.43468 30.45207 21.43468 30.45207 22.35938 32.69531 C22.67874 33.46118 22.99811 34.22704 23.32715 35.01611 C24 37 24 37 24 40 C20.6875 40.3125 20.6875 40.3125 17 40 C14.61836 37.1574 14 35.71595 14 32 C8.06 32.33 2.12 32.66 -4 33 C-4.99 35.31 -5.98 37.62 -7 40 C-9.64 40 -12.28 40 -15 40 C-14.28956 35.32393 -12.61101 31.20749 -10.83984 26.85547 C-10.53051 26.08568 -10.22118 25.3159 -9.90248 24.52278 C-8.91821 22.07603 -7.92795 19.63176 -6.9375 17.1875 C-6.26718 15.52425 -5.59725 13.86084 -4.92773 12.19727 C-3.2897 8.12966 -1.64629 4.06427 0 0 Z M4 8 C2.996 10.62354 1.99666 13.24868 1 15.875 C0.71383 16.62137 0.42766 17.36773 0.13281 18.13672 C-2 23.77344 -2 23.77344 -2 26 C2.29 26 6.58 26 11 26 C9.37727 19.74091 7.73384 13.85823 5 8 C4.67 8 4.34 8 4 8 Z " fill="#D49E1E" transform="translate(540,850)"/>
<path d="M0 0 C1.87907 0.9496 3.69765 2.01726 5.5 3.10547 C3.73438 6.93359 3.73438 6.93359 1.625 8.48047 C-1.20203 9.31195 -1.92275 8.43091 -4.5 7.10547 C-8.18897 6.77011 -10.78488 6.82917 -14.25 8.16797 C-17.38248 10.86538 -18.33265 13.14946 -19.5 17.10547 C-19.78957 21.59386 -19.032 24.34778 -16.4375 28.04297 C-12.86728 30.54972 -9.79382 31.30955 -5.5 31.10547 C-4.2625 30.73422 -3.025 30.36297 -1.75 29.98047 C1.5 29.10547 1.5 29.10547 3.9375 30.48047 C4.45312 31.01672 4.96875 31.55297 5.5 32.10547 C4.10345 35.6042 2.7874 36.81439 -0.625 38.35547 C-1.34945 38.69062 -2.07391 39.02578 -2.82031 39.37109 C-3.37461 39.61344 -3.92891 39.85578 -4.5 40.10547 C-4.005 40.66234 -3.51 41.21922 -3 41.79297 C-1.20731 44.55669 -0.91994 45.87369 -1.5 49.10547 C-3.0625 50.98047 -3.0625 50.98047 -5.5 52.10547 C-8.82045 51.87647 -11.5102 51.60037 -14.5 50.10547 C-14.5 49.44547 -14.5 48.78547 -14.5 48.10547 C-12.85 47.44547 -11.2 46.78547 -9.5 46.10547 C-11.5331 41.89405 -12.97624 39.10617 -17.375 37.23047 C-22.46524 34.81445 -25.35888 31.29495 -27.5 26.10547 C-28.26583 19.3733 -28.36911 12.71315 -24.84375 6.75781 C-18.77421 -0.70561 -9.093 -3.25359 0 0 Z " fill="#D49E1E" transform="translate(694.5,914.89453125)"/>
<path d="M0 0 C3.6875 -0.3125 3.6875 -0.3125 7 0 C11.07677 7.80015 14.54227 15.79523 17.875 23.9375 C18.39051 25.16736 18.90614 26.39718 19.42188 27.62695 C19.89883 28.79033 20.37578 29.95371 20.86719 31.15234 C21.30144 32.20414 21.73569 33.25593 22.18311 34.3396 C23 37 23 37 22 40 C18.6875 39.875 18.6875 39.875 15 39 C14.01 37.02 13.02 35.04 12 33 C6.39 33 0.78 33 -5 33 C-5.99 35.31 -6.98 37.62 -8 40 C-10.64 40 -13.28 40 -16 40 C-15.39946 35.3983 -14.16082 31.52644 -12.38281 27.24609 C-12.12499 26.62276 -11.86717 25.99942 -11.60153 25.35719 C-11.05819 24.0475 -10.51176 22.73907 -9.9624 21.43188 C-9.12722 19.44279 -8.30314 17.44937 -7.48047 15.45508 C-2.41356 3.27826 -2.41356 3.27826 0 0 Z M3 8 C1.02 13.61 -0.96 19.22 -3 25 C-2 26 -2 26 0.72266 26.09766 C1.8248 26.08605 2.92695 26.07445 4.0625 26.0625 C5.16723 26.05348 6.27195 26.04445 7.41016 26.03516 C8.2648 26.02355 9.11945 26.01195 10 26 C8.23537 19.89263 6.30443 13.92566 4 8 C3.67 8 3.34 8 3 8 Z " fill="#D49E1E" transform="translate(724,914)"/>
<path d="M0 0 C3.125 1.625 3.125 1.625 6.125 3.625 C5.77288 6.26593 5.46772 7.34348 3.375 9.0625 C3.00375 9.15531 3.00375 9.15531 1.125 9.625 C0.3825 9.17125 -0.36 8.7175 -1.125 8.25 C-4.9659 5.98038 -7.45037 6.33486 -11.875 6.625 C-12.205 6.79 -12.205 6.79 -13.875 7.625 C-13.875 8.945 -13.875 10.265 -13.875 11.625 C-13.17375 11.86734 -12.4725 12.10969 -11.75 12.35938 C3.98756 17.91884 3.98756 17.91884 7.125 22.625 C7.65842 27.27339 7.87688 30.23797 4.9375 34 C-0.22318 38.81664 -5.02202 39.04531 -11.84766 38.96094 C-16.25822 38.47151 -19.11893 36.93643 -22.875 34.625 C-22.875 33.305 -22.875 31.985 -22.875 30.625 C-20.875 28.875 -20.875 28.875 -18.875 27.625 C-18.62105 27.76937 -18.62105 27.76937 -17.33594 28.5 C-13.06972 30.80088 -9.84378 32.41549 -4.875 31.625 C-2.5 30.125 -2.5 30.125 -0.875 28.625 C-0.92188 26.77734 -0.92188 26.77734 -1.875 24.625 C-4.32959 23.62221 -6.58138 22.86532 -9.125 22.1875 C-14.67557 20.70628 -18.10727 19.26384 -21.875 14.625 C-22.99299 10.71203 -23.30988 8.63209 -21.6875 4.875 C-16.20718 -1.92816 -7.98559 -3.36414 0 0 Z " fill="#D49E1E" transform="translate(364.875,915.375)"/>
<path d="M0 0 C1.92578 1.08594 1.92578 1.08594 4.61328 3.08594 C3.92578 5.02344 3.92578 5.02344 2.61328 7.08594 C-0.26611 8.02174 -1.64182 8.45839 -4.38672 7.08594 C-8.45746 6.819 -11.36088 6.72119 -15.19922 8.08594 C-18.34763 10.96448 -19.51752 13.94583 -20.38672 18.08594 C-20.38672 22.44144 -19.86398 24.42067 -17.32422 27.96094 C-13.67792 30.59869 -10.85467 31.2948 -6.38672 31.08594 C-4.69974 30.47249 -3.02706 29.81498 -1.38672 29.08594 C1.69885 29.44895 2.93834 30.30264 5.61328 32.08594 C4.64232 34.90173 3.65739 36.05344 1.23828 37.83594 C-5.33054 40.10105 -12.4804 40.34966 -18.88672 37.39844 C-23.45687 34.71513 -26.37708 30.95676 -28.38672 26.08594 C-29.13552 19.50347 -29.37385 12.61372 -25.82422 6.80859 C-19.2613 -1.05621 -9.7648 -3.73971 0 0 Z " fill="#D49E1E" transform="translate(854.38671875,850.9140625)"/>
<path d="M0 0 C3.89196 1.98136 6.94326 4.10301 9 8 C10.00842 12.46584 10.38256 14.85233 8.9375 19.1875 C6.14279 23.24434 3.59282 26.2426 -1.17969 27.63672 C-6.27986 28.43523 -9.6498 28.03503 -14 25 C-18.1993 20.34673 -19.36034 17.46932 -19.28125 11.32031 C-18.72677 6.74587 -16.21419 4.07134 -12.875 1.125 C-8.55973 -0.56358 -4.57002 -0.66646 0 0 Z M-8.875 10.4375 C-9.24625 10.95312 -9.6175 11.46875 -10 12 C-9.3125 14.4375 -9.3125 14.4375 -8 17 C-5.5625 18 -5.5625 18 -3 18 C-1.125 16.875 -1.125 16.875 0 15 C-0.3125 12.3125 -0.3125 12.3125 -1 10 C-6.53846 8.64615 -6.53846 8.64615 -8.875 10.4375 Z " fill="#D49E1E" transform="translate(761,546)"/>
<path d="M0 0 C3 0.125 3 0.125 4 1.125 C5.34106 13.25563 5.2478 25.5771 5.29517 37.76562 C5.30684 39.86009 5.32753 41.95453 5.35669 44.04883 C5.39911 47.11088 5.41548 50.17207 5.42578 53.23438 C5.44329 54.16973 5.4608 55.10509 5.47884 56.06879 C5.45707 62.53452 5.45707 62.53452 2.97339 65.74316 C2.64778 65.97117 2.64778 65.97117 1 67.125 C-0.65 66.465 -2.3 65.805 -4 65.125 C-4.02313 56.79771 -4.04092 48.47043 -4.05181 40.14312 C-4.05704 36.2768 -4.06414 32.4105 -4.07544 28.54419 C-4.08627 24.81597 -4.09228 21.08776 -4.09488 17.35953 C-4.09673 15.9341 -4.10035 14.50868 -4.10573 13.08327 C-4.11294 11.09337 -4.11341 9.10344 -4.11353 7.11353 C-4.11575 5.97879 -4.11797 4.84406 -4.12025 3.67494 C-3.94614 -0.01708 -3.74755 0.15615 0 0 Z " fill="#D49E1E" transform="translate(823,331.875)"/>
<path d="M0 0 C2.68825 2.51419 3.00535 4.04631 3.43359 7.75 C3.45077 9.16656 3.45161 10.5834 3.4375 12 C3.44749 12.35578 3.44749 12.35578 3.49805 14.15625 C3.49502 17.39709 3.32904 19.53657 1.43091 22.20996 C-1.93859 24.69115 -4.2362 24.45657 -8.39062 24.39062 C-8.74293 24.3878 -8.74293 24.3878 -10.52582 24.37347 C-12.76791 24.35115 -15.00839 24.30097 -17.25 24.25 C-18.77341 24.22993 -20.29685 24.21168 -21.82031 24.19531 C-25.5474 24.1513 -29.27354 24.0823 -33 24 C-33 20.37 -33 16.74 -33 13 C-24.75 13 -16.5 13 -8 13 C-8.33 12.01 -8.66 11.02 -9 10 C-8.98438 8.02734 -8.98438 8.02734 -8.75 5.9375 C-8.68297 5.24527 -8.61594 4.55305 -8.54688 3.83984 C-7.31308 -0.31098 -3.70189 -0.55528 0 0 Z " fill="#D49E1E" transform="translate(796,351)"/>
<path d="M0 0 C2.375 1.6875 2.375 1.6875 4.375 4.6875 C4.85719 7.73203 4.83785 10.64041 4.375 13.6875 C2.49879 16.18911 1.13609 17.30696 -1.625 18.6875 C-4.07791 18.83845 -6.48358 18.91879 -8.9375 18.9375 C-10.25363 18.96328 -11.56977 18.98906 -12.92578 19.01562 C-16.79092 18.67278 -18.59679 18.04829 -21.625 15.6875 C-24.07363 12.01455 -24.45683 8.95481 -23.625 4.6875 C-17.79254 -2.7213 -8.53048 -3.08862 0 0 Z " fill="#D49E1E" transform="translate(383.625,671.3125)"/>
<path d="M0 0 C2.9375 1.75 2.9375 1.75 4.375 3.5 C5.19156 6.76623 5.29083 9.39339 4.9375 12.75 C3.14188 15.50329 1.88495 17.27627 -1.0625 18.75 C-3.68297 18.92741 -6.25261 19.02747 -8.875 19.0625 C-9.58721 19.0915 -10.29941 19.12051 -11.0332 19.15039 C-14.76792 19.1953 -16.84179 18.89178 -20.01172 16.85547 C-23.14125 13.64248 -23.45885 11.28609 -23.41797 6.78906 C-22.8161 3.33656 -20.74426 1.8081 -18.0625 -0.25 C-12.37621 -2.14543 -5.63264 -2.1819 0 0 Z " fill="#D49E1E" transform="translate(383.0625,707.25)"/>
<path d="M0 0 C2.54809 1.87754 3.24119 2.85826 4.375 5.75 C4.5625 7.96875 4.5625 7.96875 4.375 10.25 C4.33375 11.00281 4.2925 11.75563 4.25 12.53125 C2.85876 16.05903 0.68469 17.04581 -2.625 18.75 C-8.62465 19.67943 -16.31786 20.4347 -21.5625 16.8125 C-23.96184 13.24985 -24.43816 11.13489 -24.15625 6.90625 C-23.30231 3.44027 -21.42251 1.83186 -18.625 -0.25 C-12.65022 -2.24159 -5.91916 -2.04109 0 0 Z " fill="#D49E1E" transform="translate(336.625,671.25)"/>
<path d="M0 0 C10.23 0 20.46 0 31 0 C31 2.31 31 4.62 31 7 C27.37 7 23.74 7 20 7 C20.00262 7.48207 20.00262 7.48207 20.01587 9.92163 C20.03392 13.48673 20.04543 17.05182 20.05493 20.61694 C20.05997 22.1622 20.0668 23.70745 20.07544 25.25269 C20.08752 27.46925 20.09323 29.68575 20.09766 31.90234 C20.10282 32.59714 20.10798 33.29194 20.1133 34.0078 C20.11349 35.67229 20.06189 37.33665 20 39 C19.67 39.33 19.34 39.66 19 40 C16.69 40 14.38 40 12 40 C12 29.11 12 18.22 12 7 C8.04 7 4.08 7 0 7 C0 4.69 0 2.38 0 0 Z " fill="#D49E1E" transform="translate(718,850)"/>
<path d="M0 0 C0.51434 -0.01289 0.51434 -0.01289 3.11719 -0.07812 C7.48658 0.39854 10.06216 2.18716 13.125 5.25 C13.49609 7.71094 13.49609 7.71094 13.5625 10.625 C13.60246 11.58148 13.64242 12.53797 13.68359 13.52344 C13.125 16.25 13.125 16.25 11.09766 18.57422 C7.38065 20.66962 4.27616 20.80621 0.125 20.6875 C-0.57367 20.69459 -1.27234 20.70168 -1.99219 20.70898 C-6.43923 20.65445 -9.34723 19.98268 -12.875 17.25 C-14.72833 13.54334 -14.46836 9.28613 -13.875 5.25 C-9.829 0.76659 -5.83567 0.08732 0 0 Z " fill="#D49E1E" transform="translate(279.875,705.75)"/>
<path d="M0 0 C2.4375 1.625 2.4375 1.625 4.4375 3.625 C4.73828 6.12109 4.73828 6.12109 4.75 9.0625 C4.76676 10.03059 4.78352 10.99867 4.80078 11.99609 C4.4375 14.625 4.4375 14.625 3.10547 16.41016 C-0.68093 19.16793 -4.9507 18.91107 -9.4375 19 C-10.1452 19.03738 -10.85289 19.07477 -11.58203 19.11328 C-15.52559 19.17937 -17.35518 18.78158 -20.53125 16.38281 C-23.1332 12.85016 -23.2919 11.02315 -23.05859 6.78125 C-22.25708 3.2975 -20.3586 1.70582 -17.5625 -0.375 C-11.8082 -2.2931 -5.63851 -2.17627 0 0 Z " fill="#D49E1E" transform="translate(335.5625,707.375)"/>
<path d="M0 0 C0.51434 -0.01289 0.51434 -0.01289 3.11719 -0.07812 C7.48658 0.39854 10.06216 2.18716 13.125 5.25 C13.42578 7.49219 13.42578 7.49219 13.4375 10.125 C13.45426 10.98867 13.47102 11.85234 13.48828 12.74219 C13.05383 15.74133 12.20753 17.07481 10.125 19.25 C4.1379 21.2457 -4.14721 21.53653 -10.19531 19.44922 C-12.58397 17.77023 -13.71813 15.90717 -14.39062 13.08984 C-14.7115 8.72159 -14.28499 6.78188 -11.5625 3.25 C-7.66348 0.3484 -4.747 0.07103 0 0 Z " fill="#D49E1E" transform="translate(279.875,669.75)"/>
<path d="M0 0 C2.64 0 5.28 0 8 0 C8 10.89 8 21.78 8 33 C14.27 33 20.54 33 27 33 C27 35.31 27 37.62 27 40 C22.68751 40.02887 18.37505 40.04675 14.0625 40.0625 C12.8308 40.07088 11.5991 40.07926 10.33008 40.08789 C9.16025 40.09111 7.99043 40.09434 6.78516 40.09766 C6.24315 40.10027 6.24315 40.10027 3.50024 40.11353 C1 40 1 40 0 39 C-0.08865 36.11566 -0.11521 33.25538 -0.09766 30.37109 C-0.09624 29.50686 -0.09483 28.64263 -0.09337 27.75221 C-0.08775 24.98061 -0.0752 22.20908 -0.0625 19.4375 C-0.05749 17.56315 -0.05292 15.6888 -0.04883 13.81445 C-0.03778 9.2096 -0.0205 4.60482 0 0 Z " fill="#D49E1E" transform="translate(640,850)"/>
<path d="M0 0 C2.4375 0.75 2.4375 0.75 4.4375 2.75 C4.98592 7.62356 3.87504 10.49249 1.48047 14.69922 C0.86236 15.79428 0.24426 16.88934 -0.39258 18.01758 C-1.04678 19.14615 -1.70098 20.27473 -2.375 21.4375 C-2.6963 22.00759 -2.6963 22.00759 -4.32227 24.89258 C-9.11703 33.30453 -9.11703 33.30453 -12.5625 36.75 C-15.2025 35.43 -17.8425 34.11 -20.5625 32.75 C-19.67229 26.64859 -16.58095 21.72777 -13.67041 16.37427 C-12.68772 14.5629 -11.72028 12.74394 -10.75391 10.92383 C-10.44518 10.35181 -10.44518 10.35181 -8.88281 7.45703 C-8.60059 6.93355 -8.60059 6.93355 -7.17236 4.28442 C-5.1674 1.12799 -3.86627 -0.3772 0 0 Z " fill="#D49E1E" transform="translate(269.5625,158.25)"/>
<path d="M0 0 C3.0625 0.375 3.0625 0.375 5 2.0625 C6.3981 5.10542 6.00256 6.16017 5.0625 9.375 C3.7975 11.99427 2.34505 14.49134 0.875 17 C0.05931 18.41893 -0.75579 19.83821 -1.57031 21.25781 C-1.97153 21.95294 -2.37275 22.64807 -2.78613 23.36426 C-5.24547 27.65923 -7.58514 32.02083 -9.9375 36.375 C-11.25782 35.80958 -12.56863 35.22194 -13.875 34.625 C-14.6059 34.30016 -15.3368 33.97531 -16.08984 33.64062 C-17.9375 32.375 -17.9375 32.375 -18.73389 30.67139 C-19.0359 27.26522 -17.67454 25.34156 -16.04297 22.36719 C-15.41713 21.21605 -14.79129 20.06492 -14.14648 18.87891 C-13.81479 18.28352 -13.4831 17.68813 -13.14136 17.07471 C-12.12808 15.25553 -11.13195 13.42781 -10.13867 11.59766 C-4.06462 0.51889 -4.06462 0.51889 0 0 Z " fill="#D49E1E" transform="translate(230.9375,140.625)"/>
<path d="M0 0 C2.64 0 5.28 0 8 0 C8.02465 5.53589 8.04283 11.07174 8.05493 16.60767 C8.05997 18.49244 8.0668 20.3772 8.07544 22.26196 C8.08752 24.96502 8.09323 27.66802 8.09766 30.37109 C8.10282 31.21901 8.10798 32.06693 8.1133 32.94054 C8.11349 34.96071 8.06206 36.98078 8 39 C7.835 39.165 7.835 39.165 7 40 C4.69 40 2.38 40 0 40 C0 26.8 0 13.6 0 0 Z " fill="#D49E1E" transform="translate(806,850)"/>
<path d="M0 0 C2.64 0 5.28 0 8 0 C8.02465 5.53589 8.04283 11.07174 8.05493 16.60767 C8.05997 18.49244 8.0668 20.3772 8.07544 22.26196 C8.08752 24.96502 8.09323 27.66802 8.09766 30.37109 C8.10282 31.21901 8.10798 32.06693 8.1133 32.94054 C8.11349 34.96071 8.06206 36.98078 8 39 C7.835 39.165 7.835 39.165 7 40 C4.69 40 2.38 40 0 40 C0 26.8 0 13.6 0 0 Z " fill="#D49E1E" transform="translate(505,850)"/>
<path d="M0 0 C2.375 0.75 2.375 0.75 3.375 1.75 C3.44814 4.28049 3.46748 6.78305 3.4375 9.3125 C3.43299 10.02342 3.42848 10.73434 3.42383 11.4668 C3.41201 13.2279 3.39407 14.98896 3.375 16.75 C0.405 16.75 -2.565 16.75 -5.625 16.75 C-5.70597 14.47975 -5.76418 12.20868 -5.8125 9.9375 C-5.8473 8.67293 -5.88211 7.40836 -5.91797 6.10547 C-5.625 2.75 -5.625 2.75 -4.27734 0.78516 C-2.625 -0.25 -2.625 -0.25 0 0 Z " fill="#D49E1E" transform="translate(534.625,253.25)"/>
<path d="M0 0 C3.3 0 6.6 0 10 0 C10 3.3 10 6.6 10 10 C6.7 10 3.4 10 0 10 C0 6.7 0 3.4 0 0 Z " fill="#D49E1E" transform="translate(613,332)"/>
<path d="M0 0 C6.93359 -0.09766 6.93359 -0.09766 9 0 C10 1 10 1 10.09766 3.06641 C10.0651 5.3776 10.03255 7.6888 10 10 C6.7 10 3.4 10 0 10 C0 6.7 0 3.4 0 0 Z " fill="#D49E1E" transform="translate(613,364)"/>
<path d="M0 0 C6.93359 -0.09766 6.93359 -0.09766 9 0 C10 1 10 1 10.09766 3.06641 C10.0651 5.3776 10.03255 7.6888 10 10 C6.7 10 3.4 10 0 10 C0 6.7 0 3.4 0 0 Z " fill="#D49E1E" transform="translate(613,348)"/>
<path d="M0 0 C2.97 0 5.94 0 9 0 C9 3.3 9 6.6 9 10 C6.03 10 3.06 10 0 10 C0 6.7 0 3.4 0 0 Z " fill="#D49E1E" transform="translate(676,364)"/>
<path d="M0 0 C2.97 0 5.94 0 9 0 C9 3.3 9 6.6 9 10 C6.03 10 3.06 10 0 10 C0 6.7 0 3.4 0 0 Z " fill="#D49E1E" transform="translate(660,364)"/>
<path d="M0 0 C2.97 0 5.94 0 9 0 C9 3.3 9 6.6 9 10 C6.03 10 3.06 10 0 10 C0 6.7 0 3.4 0 0 Z " fill="#D49E1E" transform="translate(645,364)"/>
<path d="M0 0 C2.97 0 5.94 0 9 0 C9 3.3 9 6.6 9 10 C2.84766 10.09766 2.84766 10.09766 1 10 C0 9 0 9 -0.09766 6.93359 C-0.0651 4.6224 -0.03255 2.3112 0 0 Z " fill="#D49E1E" transform="translate(629,364)"/>
<path d="M0 0 C2.64 0 5.28 0 8 0 C6.43977 3.82965 4.12444 6.3219 1 9 C-0.32 9 -1.64 9 -3 9 C-2.44271 5.65627 -1.64826 2.96687 0 0 Z " fill="#D49E1E" transform="translate(693,839)"/>
</svg>
